<svg width="116" height="143" viewBox="0 0 116 143" fill="none" xmlns="http://www.w3.org/2000/svg">
<path d="M39.3619 0.641715C14.1463 9.1333 -4.08004 33.7848 1.02962 60.9356C4.72778 80.5925 22.1589 96.1822 41.5123 97.1726C54.6209 116.786 79.2454 126.389 102.631 130.598L94.2734 134.744C89.4177 137.137 93.0576 144.742 97.9042 142.313C103.162 139.703 108.402 137.141 113.626 134.41C114.182 134.129 114.667 133.726 115.047 133.232C115.426 132.739 115.69 132.166 115.819 131.556C115.948 130.947 115.939 130.316 115.792 129.711C115.645 129.106 115.364 128.541 114.97 128.059C110.815 122.258 106.72 116.164 101.814 110.956C101.425 110.518 100.893 110.233 100.313 110.154C99.7328 110.075 99.1435 110.206 98.6521 110.525C98.1607 110.843 97.7998 111.327 97.6349 111.889C97.47 112.45 97.512 113.053 97.7534 113.586C99.4809 117.49 101.448 121.283 103.643 124.944C82.9394 121.407 61.2396 114.069 48.2429 96.9139C51.3126 96.5204 54.3237 95.7579 57.2107 94.6429C77.1701 86.9068 92.6161 55.1371 72.5013 38.9725C62.6996 31.0886 48.6263 34.7973 40.9537 43.7511C32.6343 53.4647 30.8162 67.4282 33.7863 79.5602C34.8321 83.8534 36.3875 88.0062 38.4196 91.93C23.0728 89.7882 9.43136 77.2125 5.73345 61.6892C-0.372159 35.8589 16.9912 12.119 40.7782 3.49397C42.7344 2.83656 41.2914 0.0291906 39.3619 0.641715ZM38.2407 63.931C39.615 52.5563 47.6099 39.5389 60.5409 40.1587C72.9059 40.753 77.5918 54.4539 75.7482 65.0343C74.7255 70.2254 72.5044 75.1059 69.2618 79.2867C66.0193 83.4675 61.8449 86.8331 57.0715 89.1152C53.2944 90.923 49.2016 91.9785 45.0213 92.2227C39.9447 83.798 37.0622 73.8231 38.2503 63.9344L38.2407 63.931Z" fill="white"/>
</svg>
