<svg width="117" height="144" viewBox="0 0 117 144" fill="none" xmlns="http://www.w3.org/2000/svg">
<path d="M77.1645 0.894645C102.38 9.38623 120.606 34.0377 115.497 61.1886C111.799 80.8454 94.3675 96.4352 75.014 97.4256C61.9055 117.039 37.281 126.642 13.8953 130.851L22.2529 134.997C27.1087 137.39 23.4688 144.995 18.6221 142.566C13.3647 139.956 8.12422 137.394 2.90041 134.663C2.34472 134.382 1.85923 133.979 1.47967 133.485C1.10009 132.992 0.836125 132.419 0.707186 131.809C0.578248 131.2 0.587638 130.569 0.734643 129.964C0.881647 129.359 1.16254 128.794 1.55662 128.312C5.71165 122.511 9.80682 116.417 14.7128 111.209C15.1009 110.771 15.6333 110.486 16.2134 110.407C16.7935 110.328 17.3828 110.459 17.8742 110.777C18.3657 111.096 18.7266 111.58 18.8915 112.142C19.0564 112.703 19.0143 113.306 18.7729 113.839C17.0455 117.743 15.0785 121.536 12.8833 125.197C33.5869 121.659 55.2868 114.322 68.2835 97.1669C65.2137 96.7733 62.2027 96.0108 59.3156 94.8958C39.3563 87.1597 23.9103 55.39 44.0251 39.2255C53.8267 31.3416 67.9001 35.0502 75.5726 44.0041C83.8921 53.7177 85.7102 67.6811 82.7401 79.8132C81.6943 84.1064 80.1388 88.2591 78.1068 92.1829C93.4535 90.0411 107.095 77.4655 110.793 61.9421C116.899 36.1118 99.5351 12.3719 75.7481 3.7469C73.792 3.08949 75.235 0.28212 77.1645 0.894645ZM78.2857 64.1839C76.9114 52.8092 68.9165 39.7919 55.9855 40.4116C43.6205 41.0059 38.9346 54.7068 40.7782 65.2873C41.8008 70.4784 44.022 75.3588 47.2645 79.5396C50.5071 83.7205 54.6815 87.0861 59.4549 89.3681C63.2319 91.176 67.3248 92.2314 71.5051 92.4756C76.5817 84.0509 79.4642 74.076 78.276 64.1873L78.2857 64.1839Z" fill="white"/>
</svg>
