<svg width="69" height="63" viewBox="0 0 69 63" fill="none" xmlns="http://www.w3.org/2000/svg">
<rect width="69" height="63" rx="13" fill="white" fill-opacity="0.11"/>
<path d="M42.1249 19.34V17C42.1249 16.385 41.6149 15.875 40.9999 15.875C40.3849 15.875 39.8749 16.385 39.8749 17V19.25H30.1249V17C30.1249 16.385 29.6149 15.875 28.9999 15.875C28.3849 15.875 27.8749 16.385 27.8749 17V19.34C23.8249 19.715 21.8599 22.13 21.5599 25.715C21.5299 26.15 21.8899 26.51 22.3099 26.51H47.6899C48.1249 26.51 48.4849 26.135 48.4399 25.715C48.1399 22.13 46.1749 19.715 42.1249 19.34Z" fill="white"/>
<path opacity="0.4" d="M47 28.7598C47.825 28.7598 48.5 29.4348 48.5 30.2598V39.4998C48.5 43.9998 46.25 46.9998 41 46.9998H29C23.75 46.9998 21.5 43.9998 21.5 39.4998V30.2598C21.5 29.4348 22.175 28.7598 23 28.7598H47Z" fill="white"/>
<path d="M29.75 36.4998C29.36 36.4998 28.97 36.3348 28.685 36.0648C28.415 35.7798 28.25 35.3898 28.25 34.9998C28.25 34.6098 28.415 34.2198 28.685 33.9348C29.105 33.5148 29.765 33.3798 30.32 33.6198C30.515 33.6948 30.68 33.7998 30.815 33.9348C31.085 34.2198 31.25 34.6098 31.25 34.9998C31.25 35.3898 31.085 35.7798 30.815 36.0648C30.53 36.3348 30.14 36.4998 29.75 36.4998Z" fill="white"/>
<path d="M35 36.4998C34.61 36.4998 34.22 36.3348 33.935 36.0648C33.665 35.7798 33.5 35.3898 33.5 34.9998C33.5 34.6098 33.665 34.2198 33.935 33.9348C34.07 33.7998 34.235 33.6948 34.43 33.6198C34.985 33.3798 35.645 33.5148 36.065 33.9348C36.335 34.2198 36.5 34.6098 36.5 34.9998C36.5 35.3898 36.335 35.7798 36.065 36.0648C35.99 36.1248 35.915 36.1848 35.84 36.2448C35.75 36.3048 35.66 36.3498 35.57 36.3798C35.48 36.4248 35.39 36.4548 35.3 36.4698C35.195 36.4848 35.105 36.4998 35 36.4998Z" fill="white"/>
<path d="M40.25 36.5C39.86 36.5 39.47 36.335 39.185 36.065C38.915 35.78 38.75 35.39 38.75 35C38.75 34.61 38.915 34.22 39.185 33.935C39.335 33.8 39.485 33.695 39.68 33.62C39.95 33.5 40.25 33.47 40.55 33.53C40.64 33.545 40.73 33.575 40.82 33.62C40.91 33.65 41 33.695 41.09 33.755C41.165 33.815 41.24 33.875 41.315 33.935C41.585 34.22 41.75 34.61 41.75 35C41.75 35.39 41.585 35.78 41.315 36.065C41.24 36.125 41.165 36.185 41.09 36.245C41 36.305 40.91 36.35 40.82 36.38C40.73 36.425 40.64 36.455 40.55 36.47C40.445 36.485 40.34 36.5 40.25 36.5Z" fill="white"/>
<path d="M29.75 41.75C29.555 41.75 29.36 41.705 29.18 41.63C28.985 41.555 28.835 41.45 28.685 41.315C28.415 41.03 28.25 40.64 28.25 40.25C28.25 39.86 28.415 39.47 28.685 39.185C28.835 39.05 28.985 38.945 29.18 38.87C29.45 38.75 29.75 38.72 30.05 38.78C30.14 38.795 30.23 38.825 30.32 38.87C30.41 38.9 30.5 38.945 30.59 39.005C30.665 39.065 30.74 39.125 30.815 39.185C31.085 39.47 31.25 39.86 31.25 40.25C31.25 40.64 31.085 41.03 30.815 41.315C30.74 41.375 30.665 41.45 30.59 41.495C30.5 41.555 30.41 41.6 30.32 41.63C30.23 41.675 30.14 41.705 30.05 41.72C29.945 41.735 29.855 41.75 29.75 41.75Z" fill="white"/>
<path d="M35 41.7498C34.61 41.7498 34.22 41.5848 33.935 41.3148C33.665 41.0298 33.5 40.6398 33.5 40.2498C33.5 39.8598 33.665 39.4698 33.935 39.1848C34.49 38.6298 35.51 38.6298 36.065 39.1848C36.335 39.4698 36.5 39.8598 36.5 40.2498C36.5 40.6398 36.335 41.0298 36.065 41.3148C35.78 41.5848 35.39 41.7498 35 41.7498Z" fill="white"/>
<path d="M40.25 41.7498C39.86 41.7498 39.47 41.5848 39.185 41.3148C38.915 41.0298 38.75 40.6398 38.75 40.2498C38.75 39.8598 38.915 39.4698 39.185 39.1848C39.74 38.6298 40.76 38.6298 41.315 39.1848C41.585 39.4698 41.75 39.8598 41.75 40.2498C41.75 40.6398 41.585 41.0298 41.315 41.3148C41.03 41.5848 40.64 41.7498 40.25 41.7498Z" fill="white"/>
</svg>
