<svg width="69" height="63" viewBox="0 0 69 63" fill="none" xmlns="http://www.w3.org/2000/svg">
<rect width="69" height="63" rx="13" fill="white" fill-opacity="0.11"/>
<g filter="url(#filter0_d_16_634)">
<path opacity="0.4" d="M34.1764 34.9072L29.1352 39.9485C28.5802 39.4552 28.0406 38.9464 27.5164 38.4222C25.9285 36.8189 24.4947 35.1385 23.2152 33.381C21.951 31.6235 20.9335 29.866 20.1935 28.1239C19.4535 26.3664 19.0835 24.686 19.0835 23.0827C19.0835 22.0343 19.2685 21.0322 19.6385 20.1072C20.0085 19.1668 20.5943 18.3035 21.4114 17.5327C22.3981 16.5614 23.4772 16.0835 24.6181 16.0835C25.0497 16.0835 25.4814 16.176 25.8668 16.361C26.2677 16.546 26.6222 16.8235 26.8997 17.2243L30.4764 22.2656C30.7539 22.651 30.9543 23.0056 31.0931 23.3447C31.2318 23.6685 31.3089 23.9922 31.3089 24.2852C31.3089 24.6552 31.201 25.0252 30.9852 25.3797C30.7847 25.7343 30.4918 26.1043 30.1218 26.4743L28.9502 27.6922C28.7806 27.8618 28.7035 28.0622 28.7035 28.3089C28.7035 28.4322 28.7189 28.5402 28.7497 28.6635C28.796 28.7868 28.8422 28.8793 28.8731 28.9718C29.1506 29.4806 29.6285 30.1435 30.3068 30.9452C31.0006 31.7468 31.7406 32.5639 32.5422 33.381C33.0972 33.9206 33.6368 34.4447 34.1764 34.9072Z" fill="white"/>
<path d="M49.8702 41.2588C49.8702 41.6904 49.7931 42.1375 49.639 42.5692C49.5927 42.6925 49.5465 42.8159 49.4848 42.9392C49.2227 43.4942 48.8836 44.0184 48.4365 44.5117C47.6811 45.3442 46.8486 45.9454 45.9081 46.3309C45.8927 46.3309 45.8773 46.3463 45.8619 46.3463C44.9523 46.7163 43.9656 46.9167 42.9019 46.9167C41.3294 46.9167 39.649 46.5467 37.8761 45.7913C36.1031 45.0359 34.3302 44.0184 32.5727 42.7388C31.9715 42.2917 31.3702 41.8446 30.7998 41.3667L35.8411 36.3254C36.2727 36.6492 36.6581 36.8959 36.9819 37.0654C37.059 37.0963 37.1515 37.1425 37.2594 37.1888C37.3827 37.235 37.5061 37.2504 37.6448 37.2504C37.9069 37.2504 38.1073 37.1579 38.2769 36.9884L39.4486 35.8321C39.834 35.4467 40.204 35.1538 40.5586 34.9688C40.9131 34.7529 41.2677 34.645 41.6531 34.645C41.9461 34.645 42.2544 34.7067 42.5936 34.8454C42.9327 34.9842 43.2873 35.1846 43.6727 35.4467L48.7756 39.0696C49.1765 39.3471 49.454 39.6709 49.6236 40.0563C49.7777 40.4417 49.8702 40.8271 49.8702 41.2588Z" fill="white"/>
</g>
<defs>
<filter id="filter0_d_16_634" x="15.0835" y="16.0835" width="38.7866" height="38.833" filterUnits="userSpaceOnUse" color-interpolation-filters="sRGB">
<feFlood flood-opacity="0" result="BackgroundImageFix"/>
<feColorMatrix in="SourceAlpha" type="matrix" values="0 0 0 0 0 0 0 0 0 0 0 0 0 0 0 0 0 0 127 0" result="hardAlpha"/>
<feOffset dy="4"/>
<feGaussianBlur stdDeviation="2"/>
<feComposite in2="hardAlpha" operator="out"/>
<feColorMatrix type="matrix" values="0 0 0 0 0 0 0 0 0 0 0 0 0 0 0 0 0 0 0.25 0"/>
<feBlend mode="normal" in2="BackgroundImageFix" result="effect1_dropShadow_16_634"/>
<feBlend mode="normal" in="SourceGraphic" in2="effect1_dropShadow_16_634" result="shape"/>
</filter>
</defs>
</svg>
