<svg width="165" height="165" viewBox="0 0 165 165" fill="none" xmlns="http://www.w3.org/2000/svg">
<circle cx="74.5" cy="74.5" r="78.5" transform="matrix(1 0 0 -1 8 157)" fill="#4F46E5" stroke="#FFF8F6" stroke-width="8"/>
<path d="M77.3552 144.391H78.8807C78.9709 144.83 79.1288 145.215 79.3544 145.547C79.5758 145.88 79.8465 146.158 80.1663 146.384C80.4821 146.614 80.8327 146.786 81.2182 146.901C81.6037 147.015 82.0056 147.073 82.4238 147.073C83.1866 147.073 83.8776 146.88 84.4968 146.495C85.1119 146.109 85.602 145.541 85.967 144.791C86.3278 144.04 86.5083 143.12 86.5083 142.029C86.5083 140.938 86.3278 140.017 85.967 139.267C85.602 138.516 85.1119 137.949 84.4968 137.563C83.8776 137.178 83.1866 136.985 82.4238 136.985C82.0056 136.985 81.6037 137.042 81.2182 137.157C80.8327 137.272 80.4821 137.442 80.1663 137.668C79.8465 137.897 79.5758 138.178 79.3544 138.51C79.1288 138.847 78.9709 139.232 78.8807 139.667H77.3552C77.47 139.023 77.6792 138.447 77.9826 137.938C78.2861 137.43 78.6634 136.997 79.1145 136.64C79.5656 136.288 80.072 136.019 80.6338 135.835C81.1915 135.65 81.7882 135.558 82.4238 135.558C83.4983 135.558 84.4538 135.82 85.2903 136.345C86.1269 136.87 86.7851 137.616 87.2649 138.584C87.7447 139.552 87.9846 140.7 87.9846 142.029C87.9846 143.358 87.7447 144.506 87.2649 145.474C86.7851 146.441 86.1269 147.188 85.2903 147.713C84.4538 148.238 83.4983 148.5 82.4238 148.5C81.7882 148.5 81.1915 148.408 80.6338 148.223C80.072 148.039 79.5656 147.768 79.1145 147.411C78.6634 147.059 78.2861 146.628 77.9826 146.119C77.6792 145.615 77.47 145.039 77.3552 144.391Z" fill="white"/>
<path d="M70.8506 134.145C71.6821 134.335 72.3666 134.7 72.904 135.239C73.4373 135.777 73.7987 136.442 73.9881 137.234C74.1735 138.025 74.1576 138.896 73.9404 139.848C73.7214 140.807 73.3563 141.605 72.8451 142.241C72.33 142.877 71.7154 143.321 71.0014 143.575C70.2833 143.827 69.5085 143.858 68.6769 143.669C67.8453 143.479 67.1629 143.115 66.6295 142.577C66.0922 142.038 65.7313 141.371 65.5468 140.576C65.3583 139.78 65.3736 138.902 65.5926 137.942C65.8097 136.991 66.1755 136.199 66.6897 135.568C67.2 134.936 67.8141 134.493 68.5321 134.241C69.2462 133.987 70.019 133.956 70.8506 134.145ZM70.5604 135.417C69.9287 135.273 69.372 135.316 68.8903 135.547C68.4086 135.777 68.0095 136.134 67.6932 136.617C67.3768 137.1 67.1484 137.65 67.0079 138.265C66.8673 138.881 66.8343 139.477 66.9089 140.054C66.9834 140.63 67.1872 141.129 67.5201 141.55C67.8531 141.971 68.3354 142.253 68.9671 142.397C69.5988 142.541 70.156 142.496 70.6386 142.261C71.1212 142.027 71.5211 141.666 71.8384 141.179C72.1557 140.692 72.3846 140.14 72.5251 139.525C72.6656 138.909 72.6982 138.315 72.6227 137.742C72.5473 137.17 72.3426 136.675 72.0087 136.258C71.6748 135.841 71.1921 135.561 70.5604 135.417Z" fill="white"/>
<path d="M59.2481 136.476L61.7142 131.355L63.0221 131.985L58.9226 140.498L57.659 139.889L58.2996 138.559L58.1887 138.506C57.781 138.842 57.3108 139.044 56.7781 139.11C56.2435 139.18 55.6548 139.061 55.012 138.751C54.4356 138.474 53.9882 138.113 53.6698 137.668C53.3496 137.227 53.1842 136.71 53.1736 136.118C53.1611 135.529 53.3293 134.873 53.678 134.149L56.2829 128.74L57.5908 129.37L55.0287 134.69C54.7066 135.359 54.6294 135.963 54.797 136.504C54.9628 137.048 55.3487 137.466 55.9546 137.758C56.3721 137.959 56.7889 138.048 57.2049 138.025C57.6172 138.001 58.0012 137.86 58.3569 137.604C58.7126 137.347 59.0096 136.971 59.2481 136.476Z" fill="white"/>
<path d="M41.7426 129.773L42.5096 128.811L46.3378 131.864L45.5707 132.825L41.7426 129.773ZM43.0436 133.705L41.9086 132.8L47.5234 125.76C47.7791 125.439 47.9244 125.161 47.9592 124.927C47.9883 124.693 47.9509 124.49 47.8469 124.318C47.7371 124.147 47.5988 123.994 47.4321 123.862C47.3071 123.762 47.1994 123.686 47.109 123.635C47.016 123.587 46.9417 123.549 46.8859 123.52L47.4681 122.317C47.5681 122.349 47.6985 122.406 47.8594 122.487C48.0228 122.565 48.2104 122.688 48.422 122.857C48.7426 123.113 49.0018 123.432 49.1997 123.816C49.3943 124.196 49.4801 124.608 49.4571 125.052C49.4309 125.492 49.2465 125.927 48.9038 126.357L43.0436 133.705Z" fill="white"/>
<path d="M41.9502 115.993C42.3235 116.461 42.5741 116.956 42.7021 117.478C42.8268 118.003 42.8103 118.512 42.6526 119.005C42.4917 119.5 42.1708 119.94 41.6899 120.323C41.2667 120.661 40.8572 120.851 40.4613 120.894C40.0623 120.939 39.6762 120.883 39.303 120.724C38.9299 120.565 38.5722 120.347 38.23 120.069C37.882 119.791 37.5488 119.498 37.2303 119.191C36.8147 118.788 36.4812 118.458 36.2299 118.202C35.9728 117.946 35.7563 117.783 35.5803 117.713C35.4017 117.641 35.2211 117.677 35.0383 117.823L34.9998 117.854C34.5253 118.232 34.2602 118.656 34.2044 119.125C34.146 119.591 34.3252 120.086 34.742 120.608C35.1741 121.15 35.6315 121.481 36.1142 121.599C36.5969 121.718 37.0228 121.732 37.3918 121.642L37.8662 123.026C37.2639 123.192 36.7099 123.214 36.2041 123.093C35.6926 122.971 35.235 122.759 34.8313 122.457C34.4219 122.154 34.0689 121.817 33.7723 121.445C33.5831 121.207 33.3946 120.912 33.2069 120.558C33.0134 120.204 32.8881 119.813 32.8312 119.386C32.7716 118.957 32.8399 118.506 33.036 118.035C33.232 117.564 33.6234 117.095 34.2101 116.627L39.0771 112.745L39.9822 113.88L38.9819 114.678L39.0279 114.736C39.2496 114.685 39.5234 114.676 39.8493 114.71C40.1752 114.744 40.5212 114.859 40.8873 115.055C41.2533 115.251 41.6076 115.563 41.9502 115.993ZM40.7926 116.633C40.4346 116.184 40.0448 115.876 39.623 115.709C39.1986 115.539 38.7843 115.486 38.3801 115.551C37.9733 115.614 37.6161 115.767 37.3083 116.013L36.2695 116.841C36.3655 116.843 36.5028 116.907 36.6813 117.032C36.854 117.157 37.0424 117.311 37.2464 117.494C37.4447 117.677 37.6359 117.857 37.8201 118.036C37.9985 118.213 38.1443 118.357 38.2575 118.466C38.5312 118.73 38.8136 118.956 39.1047 119.143C39.39 119.33 39.6803 119.434 39.9755 119.456C40.265 119.477 40.554 119.372 40.8425 119.142C41.2369 118.828 41.4187 118.444 41.388 117.991C41.3516 117.538 41.1531 117.085 40.7926 116.633Z" fill="white"/>
<path d="M35.105 105.077C35.4893 105.875 35.6318 106.653 35.5325 107.411C35.4332 108.169 35.1276 108.862 34.6157 109.491C34.1038 110.12 33.423 110.639 32.5732 111.048C31.7086 111.464 30.8692 111.673 30.0548 111.674C29.2349 111.673 28.5005 111.476 27.8516 111.083C27.1972 110.688 26.6849 110.106 26.3148 109.337C26.0266 108.739 25.8776 108.146 25.868 107.559C25.8584 106.972 25.9792 106.429 26.2306 105.93C26.4819 105.431 26.8558 105.017 27.3523 104.687L27.9822 105.995C27.6423 106.281 27.4054 106.668 27.2716 107.156C27.1323 107.642 27.2015 108.173 27.4791 108.75C27.7246 109.259 28.0729 109.642 28.524 109.899C28.9696 110.153 29.4841 110.271 30.0676 110.254C30.6457 110.235 31.2561 110.071 31.899 109.762C32.5567 109.445 33.0795 109.066 33.4676 108.624C33.8539 108.178 34.0902 107.7 34.1767 107.19C34.2613 106.676 34.1791 106.16 33.93 105.643C33.7663 105.303 33.5587 105.023 33.307 104.803C33.0553 104.583 32.7724 104.43 32.4581 104.344C32.1439 104.259 31.8121 104.25 31.4626 104.319L30.8327 103.011C31.3708 102.843 31.9115 102.808 32.4548 102.906C32.9926 103.002 33.4945 103.231 33.9605 103.594C34.421 103.955 34.8025 104.449 35.105 105.077Z" fill="white"/>
<path d="M21.4682 93.8995L22.6676 93.6258L23.7571 98.3994L22.5577 98.6732L21.4682 93.8995ZM20.0333 97.7856L19.7102 96.3703L28.4899 94.3664C28.8897 94.2751 29.1763 94.1487 29.3497 93.9871C29.5183 93.8225 29.6155 93.6404 29.6415 93.441C29.6626 93.2385 29.6494 93.0333 29.602 92.8254C29.5664 92.6695 29.5292 92.5434 29.4904 92.4471C29.4476 92.3517 29.4133 92.2754 29.3876 92.2182L30.5933 91.6401C30.6512 91.7279 30.7177 91.8536 30.793 92.0173C30.8722 92.1801 30.9419 92.3934 31.0021 92.6573C31.0934 93.0571 31.0969 93.4685 31.0125 93.8915C30.9273 94.3106 30.7375 94.6862 30.4432 95.0184C30.148 95.3466 29.7325 95.5718 29.1967 95.6941L20.0333 97.7856Z" fill="white"/>
<path d="M20.2992 62.797L32.5811 65.6003L32.2526 67.0396L21.0818 71.5312L21.0544 71.6512L30.6976 73.8522L30.3582 75.3394L18.0763 72.5362L18.4048 71.0969L29.605 66.5867L29.6324 66.4668L19.9652 64.2603L20.2992 62.797Z" fill="white"/>
<path d="M35.5444 59.7402C35.1743 60.5087 34.6667 61.0949 34.0216 61.4988C33.3782 61.8991 32.6494 62.1034 31.8352 62.1118C31.0227 62.1165 30.1768 61.9072 29.2975 61.4837C28.4108 61.0567 27.7141 60.5232 27.2076 59.8832C26.7028 59.2396 26.4063 58.5415 26.3181 57.789C26.2317 57.0328 26.3735 56.2704 26.7436 55.5019C27.1137 54.7334 27.6204 54.1491 28.2637 53.7488C28.9089 53.3449 29.6395 53.1415 30.4556 53.1385C31.2736 53.1319 32.1259 53.3421 33.0126 53.7691C33.892 54.1926 34.5822 54.7252 35.0833 55.3671C35.5861 56.0052 35.8808 56.7024 35.9672 57.4587C36.0554 58.2112 35.9145 58.9717 35.5444 59.7402ZM34.3695 59.1744C34.6506 58.5906 34.7323 58.0382 34.6145 57.5173C34.4967 56.9963 34.2375 56.5278 33.837 56.1119C33.4365 55.696 32.9518 55.3511 32.3828 55.077C31.8138 54.803 31.24 54.6382 30.6614 54.5826C30.0828 54.527 29.5513 54.6147 29.0669 54.8457C28.5824 55.0766 28.1996 55.484 27.9185 56.0678C27.6374 56.6515 27.5575 57.2048 27.679 57.7275C27.8005 58.2503 28.0634 58.7205 28.4676 59.1382C28.8718 59.5559 29.3584 59.9017 29.9274 60.1758C30.4964 60.4498 31.0683 60.6137 31.6432 60.6675C32.2181 60.7213 32.7459 60.6319 33.2266 60.3991C33.7074 60.1664 34.0883 59.7581 34.3695 59.1744Z" fill="white"/>
<path d="M39.6652 52.2466L30.4834 48.6064L31.4345 47.4137L38.3635 50.3273L38.4248 50.2504L34.0271 44.1627L34.9936 42.9508L41.8726 45.8875L41.934 45.8105L37.5709 39.719L38.522 38.5263L44.1141 46.6679L43.2243 47.7837L36.2608 44.874L36.1688 44.9894L40.555 51.1309L39.6652 52.2466Z" fill="white"/>
<path d="M59.7386 28.581L60.3257 29.8003L55.36 32.1917L54.7729 30.9724L59.7386 28.581Z" fill="white"/>
<path d="M88.3753 21.339L86.8497 21.339C86.7595 20.9003 86.6016 20.5148 86.3761 20.1826C86.1547 19.8504 85.884 19.5716 85.5641 19.346C85.2484 19.1164 84.8977 18.9442 84.5123 18.8293C84.1268 18.7145 83.7249 18.6571 83.3066 18.6571C82.5439 18.6571 81.8529 18.8498 81.2337 19.2353C80.6185 19.6208 80.1285 20.1888 79.7635 20.9392C79.4026 21.6897 79.2222 22.6103 79.2222 23.7011C79.2222 24.7919 79.4026 25.7126 79.7635 26.463C80.1285 27.2135 80.6185 27.7815 81.2337 28.1669C81.8529 28.5524 82.5439 28.7451 83.3066 28.7451C83.7249 28.7451 84.1268 28.6877 84.5123 28.5729C84.8977 28.4581 85.2484 28.2879 85.5641 28.0624C85.884 27.8327 86.1547 27.5518 86.3761 27.2196C86.6016 26.8834 86.7595 26.4979 86.8497 26.0632L88.3753 26.0632C88.2604 26.707 88.0513 27.2832 87.7478 27.7917C87.4444 28.3002 87.0671 28.7328 86.616 29.0896C86.1649 29.4423 85.6585 29.7109 85.0966 29.8954C84.5389 30.08 83.9423 30.1722 83.3066 30.1722C82.2322 30.1722 81.2767 29.9098 80.4401 29.3849C79.6036 28.86 78.9454 28.1136 78.4656 27.1458C77.9858 26.178 77.7459 25.0298 77.7459 23.7011C77.7459 22.3725 77.9858 21.2242 78.4656 20.2564C78.9454 19.2886 79.6036 18.5423 80.4401 18.0174C81.2767 17.4925 82.2322 17.23 83.3066 17.23C83.9423 17.23 84.5389 17.3223 85.0966 17.5068C85.6585 17.6914 86.1649 17.962 86.616 18.3188C87.0671 18.6715 87.4444 19.102 87.7478 19.6105C88.0513 20.115 88.2604 20.6911 88.3753 21.339Z" fill="white"/>
<path d="M94.8799 31.5846C94.0483 31.3948 93.3639 31.0303 92.8265 30.4913C92.2932 29.9531 91.9318 29.2881 91.7424 28.4961C91.557 27.7051 91.5729 26.8338 91.7901 25.8823C92.0091 24.9228 92.3742 24.1249 92.8853 23.4886C93.4005 22.8533 94.0151 22.4089 94.7291 22.1554C95.4471 21.9029 96.2219 21.8715 97.0535 22.0613C97.8851 22.2511 98.5676 22.6151 99.1009 23.1533C99.6383 23.6923 99.9992 24.3594 100.184 25.1544C100.372 25.9504 100.357 26.8281 100.138 27.7876C99.9207 28.7391 99.555 29.5306 99.0408 30.1619C98.5305 30.7942 97.9164 31.2366 97.1983 31.4891C96.4843 31.7426 95.7115 31.7744 94.8799 31.5846ZM95.1701 30.3132C95.8018 30.4574 96.3585 30.4141 96.8402 30.1833C97.3219 29.9526 97.7209 29.5957 98.0373 29.1127C98.3536 28.6296 98.5821 28.0803 98.7226 27.4646C98.8631 26.8489 98.8961 26.2528 98.8216 25.6764C98.7471 25.0999 98.5433 24.6012 98.2103 24.1803C97.8774 23.7594 97.395 23.4769 96.7634 23.3327C96.1317 23.1885 95.5745 23.2338 95.0919 23.4686C94.6093 23.7033 94.2093 24.0642 93.8921 24.5512C93.5748 25.0383 93.3459 25.5896 93.2054 26.2053C93.0648 26.821 93.0323 27.4151 93.1077 27.9875C93.1832 28.56 93.3879 29.0547 93.7217 29.4716C94.0556 29.8885 94.5384 30.169 95.1701 30.3132Z" fill="white"/>
<path d="M106.482 29.2542L104.016 34.3751L102.708 33.7452L106.808 25.2326L108.071 25.8411L107.431 27.1712L107.542 27.2245C107.949 26.8883 108.42 26.6869 108.952 26.6203C109.487 26.55 110.076 26.6697 110.719 26.9793C111.295 27.2569 111.742 27.618 112.061 28.0626C112.381 28.5035 112.546 29.0201 112.557 29.6124C112.569 30.201 112.401 30.8574 112.052 31.5815L109.448 36.9906L108.14 36.3607L110.702 31.0403C111.024 30.3716 111.101 29.767 110.933 29.2266C110.768 28.6825 110.382 28.2645 109.776 27.9727C109.358 27.7717 108.942 27.6825 108.526 27.7052C108.113 27.7296 107.729 27.8701 107.374 28.1267C107.018 28.3833 106.721 28.7591 106.482 29.2542Z" fill="white"/>
<path d="M123.988 35.9574L123.221 36.9192L119.393 33.8664L120.16 32.9045L123.988 35.9574ZM122.687 32.0245L123.822 32.9296L118.207 39.9703C117.951 40.291 117.806 40.5685 117.771 40.8029C117.742 41.0368 117.78 41.2397 117.884 41.4118C117.993 41.5833 118.132 41.7355 118.298 41.8685C118.423 41.9682 118.531 42.0436 118.621 42.0947C118.714 42.1426 118.789 42.1809 118.845 42.2096L118.262 43.4133C118.162 43.3808 118.032 43.324 117.871 43.2429C117.708 43.165 117.52 43.0417 117.309 42.8729C116.988 42.6172 116.729 42.2977 116.531 41.9144C116.336 41.5337 116.25 41.1217 116.273 40.6784C116.3 40.2378 116.484 39.8026 116.827 39.373L122.687 32.0245Z" fill="white"/>
<path d="M123.78 49.737C123.407 49.2689 123.156 48.7737 123.028 48.2516C122.904 47.7269 122.92 47.218 123.078 46.7251C123.239 46.2297 123.56 45.7902 124.041 45.4067C124.464 45.0692 124.873 44.879 125.269 44.836C125.668 44.7905 126.054 44.8472 126.427 45.0059C126.801 45.1647 127.158 45.383 127.5 45.6608C127.848 45.9393 128.182 46.2322 128.5 46.5395C128.916 46.9423 129.249 47.2717 129.501 47.5276C129.758 47.7842 129.974 47.9472 130.15 48.0166C130.329 48.0893 130.509 48.0527 130.692 47.907L130.731 47.8763C131.205 47.4979 131.47 47.074 131.526 46.6046C131.584 46.1385 131.405 45.6441 130.989 45.1215C130.556 44.5797 130.099 44.2495 129.616 44.1309C129.134 44.0123 128.708 43.9979 128.339 44.0876L127.864 42.7035C128.467 42.5379 129.021 42.5157 129.526 42.6369C130.038 42.7587 130.495 42.9708 130.899 43.2731C131.309 43.576 131.662 43.9134 131.958 44.2853C132.147 44.5226 132.336 44.8181 132.524 45.1719C132.717 45.5264 132.842 45.9169 132.899 46.3435C132.959 46.7734 132.891 47.2238 132.695 47.6949C132.498 48.1659 132.107 48.6354 131.52 49.1033L126.653 52.9846L125.748 51.8496L126.749 51.0519L126.703 50.9942C126.481 51.0451 126.207 51.0536 125.881 51.0198C125.555 50.986 125.209 50.8711 124.843 50.6752C124.477 50.4793 124.123 50.1666 123.78 49.737ZM124.938 49.097C125.296 49.5459 125.686 49.8539 126.107 50.0211C126.532 50.1914 126.946 50.2439 127.35 50.1786C127.757 50.1165 128.114 49.9627 128.422 49.7172L129.461 48.8888C129.365 48.8867 129.228 48.8231 129.049 48.698C128.876 48.5734 128.688 48.4194 128.484 48.236C128.286 48.0531 128.095 47.8726 127.91 47.6942C127.732 47.5166 127.586 47.3732 127.473 47.2641C127.199 46.9999 126.917 46.774 126.626 46.5865C126.34 46.3997 126.05 46.2955 125.755 46.2739C125.466 46.253 125.177 46.3576 124.888 46.5877C124.494 46.9022 124.312 47.2858 124.342 47.7387C124.379 48.1922 124.577 48.6449 124.938 49.097Z" fill="white"/>
<path d="M130.626 60.6529C130.242 59.8549 130.099 59.0769 130.198 58.319C130.298 57.5612 130.603 56.8678 131.115 56.239C131.627 55.6101 132.308 55.0911 133.158 54.6818C134.022 54.2655 134.862 54.0569 135.676 54.0562C136.496 54.0574 137.23 54.2544 137.879 54.6474C138.534 55.0423 139.046 55.624 139.416 56.3925C139.704 56.991 139.853 57.5838 139.863 58.1709C139.873 58.758 139.752 59.3009 139.5 59.7998C139.249 60.2986 138.875 60.713 138.379 61.0432L137.749 59.7352C138.089 59.4486 138.326 59.0615 138.459 58.5738C138.599 58.0879 138.529 57.5568 138.252 56.9805C138.006 56.4706 137.658 56.0876 137.207 55.8315C136.761 55.5772 136.247 55.4586 135.663 55.4756C135.085 55.4946 134.475 55.6588 133.832 55.9684C133.174 56.2851 132.651 56.6644 132.263 57.1061C131.877 57.5516 131.641 58.0296 131.554 58.54C131.47 59.0541 131.552 59.5698 131.801 60.0871C131.965 60.427 132.172 60.7071 132.424 60.9272C132.676 61.1474 132.959 61.3002 133.273 61.3855C133.587 61.4709 133.919 61.4795 134.268 61.4113L134.898 62.7192C134.36 62.8873 133.819 62.9224 133.276 62.8245C132.738 62.7284 132.236 62.4991 131.77 62.1363C131.31 61.7755 130.928 61.281 130.626 60.6529Z" fill="white"/>
<path d="M144.263 71.8305L143.063 72.1042L141.974 67.3306L143.173 67.0568L144.263 71.8305ZM145.698 67.9444L146.021 69.3597L137.241 71.3636C136.841 71.4549 136.555 71.5813 136.381 71.7428C136.213 71.9075 136.115 72.0895 136.089 72.289C136.068 72.4915 136.082 72.6967 136.129 72.9046C136.165 73.0605 136.202 73.1866 136.241 73.2829C136.283 73.3783 136.318 73.4546 136.343 73.5118L135.138 74.0899C135.08 74.0021 135.013 73.8764 134.938 73.7127C134.859 73.5499 134.789 73.3366 134.729 73.0727C134.638 72.6729 134.634 72.2615 134.718 71.8384C134.804 71.4194 134.993 71.0438 135.288 70.7116C135.583 70.3834 135.998 70.1582 136.534 70.0359L145.698 67.9444Z" fill="white"/>
<path d="M145.431 102.933L133.149 100.13L133.478 98.6909L144.649 94.1992L144.676 94.0793L135.033 91.8783L135.372 90.391L147.654 93.1943L147.326 94.6336L136.125 99.1438L136.098 99.2637L145.765 101.47L145.431 102.933Z" fill="white"/>
<path d="M130.187 105.99C130.557 105.221 131.064 104.635 131.709 104.231C132.353 103.831 133.082 103.627 133.896 103.618C134.708 103.613 135.554 103.823 136.433 104.246C137.32 104.673 138.017 105.207 138.523 105.847C139.028 106.49 139.325 107.188 139.413 107.941C139.499 108.697 139.357 109.46 138.987 110.228C138.617 110.997 138.111 111.581 137.467 111.981C136.822 112.385 136.091 112.588 135.275 112.591C134.457 112.598 133.605 112.388 132.718 111.961C131.839 111.537 131.149 111.005 130.648 110.363C130.145 109.725 129.85 109.028 129.764 108.271C129.676 107.519 129.816 106.758 130.187 105.99ZM131.361 106.556C131.08 107.139 130.999 107.692 131.116 108.213C131.234 108.734 131.493 109.202 131.894 109.618C132.294 110.034 132.779 110.379 133.348 110.653C133.917 110.927 134.491 111.092 135.07 111.147C135.648 111.203 136.18 111.115 136.664 110.884C137.149 110.653 137.531 110.246 137.812 109.662C138.094 109.078 138.173 108.525 138.052 108.002C137.93 107.48 137.668 107.009 137.263 106.592C136.859 106.174 136.373 105.828 135.804 105.554C135.235 105.28 134.663 105.116 134.088 105.062C133.513 105.009 132.985 105.098 132.504 105.331C132.024 105.564 131.643 105.972 131.361 106.556Z" fill="white"/>
<path d="M126.065 113.483L135.247 117.123L134.296 118.316L127.367 115.402L127.306 115.479L131.703 121.567L130.737 122.779L123.858 119.842L123.796 119.919L128.16 126.011L127.208 127.203L121.616 119.062L122.506 117.946L129.47 120.856L129.562 120.74L125.175 114.599L126.065 113.483Z" fill="white"/>
<path d="M105.992 137.149L105.405 135.93L110.37 133.538L110.958 134.758L105.992 137.149Z" fill="white"/>
<g clip-path="url(#clip0_16_934)">
<path d="M103 74.0698V92.9998C103 94.5302 102.415 96.0029 101.365 97.1163C100.316 98.2298 98.8798 98.9 97.352 98.9898L97 98.9998H69C67.4696 98.9999 65.997 98.4152 64.8835 97.3653C63.77 96.3153 63.0998 94.8796 63.01 93.3518L63 92.9998V74.0698L81.89 86.6638L82.122 86.7958C82.3954 86.9294 82.6957 86.9989 83 86.9989C83.3043 86.9989 83.6046 86.9294 83.878 86.7958L84.11 86.6638L103 74.0698Z" fill="white"/>
<path d="M97.0001 67C99.1601 67 101.054 68.14 102.11 69.854L83.0001 82.594L63.8901 69.854C64.3916 69.0395 65.0806 68.3568 65.8996 67.8628C66.7185 67.3687 67.6438 67.0777 68.5981 67.014L69.0001 67H97.0001Z" fill="white"/>
</g>
<defs>
<clipPath id="clip0_16_934">
<rect width="48" height="48" fill="white" transform="translate(59 59)"/>
</clipPath>
</defs>
</svg>
