<svg width="1440" height="1056" viewBox="0 0 1440 1056" fill="none" xmlns="http://www.w3.org/2000/svg">
<g opacity="0.05">
<path opacity="0.0375" d="M1037.94 607.019C1519.83 921.097 657.338 716.664 638.931 559.741C629.771 481.662 251.282 339.064 292.352 283.61C333.294 228.112 493.104 314.061 668.988 364.296C888.235 426.54 910.356 523.861 1037.94 607.019Z" stroke="white" stroke-width="1.3728" stroke-miterlimit="10"/>
<path opacity="0.075" d="M1043.42 605.941C1492.2 907.24 684.308 726.146 637.77 562.479C614.829 481.806 248.465 329.399 299.366 281.358C350.005 233.235 507.629 312.227 677.465 365.937C889.296 432.931 921.171 523.865 1043.42 605.941Z" stroke="white" stroke-width="1.3728" stroke-miterlimit="10"/>
<path opacity="0.1125" d="M1048.9 604.86C1464.62 893.024 711.635 735.955 636.615 565.209C600.105 482.118 245.654 319.722 306.369 279.091C366.719 238.354 521.95 310.165 685.947 367.571C890.108 439.046 931.891 523.758 1048.9 604.86Z" stroke="white" stroke-width="1.3728" stroke-miterlimit="10"/>
<path opacity="0.15" d="M1054.37 603.783C1437.16 878.455 739.474 746.15 635.457 567.942C585.656 482.618 242.84 310.052 313.385 276.835C383.431 243.476 536.191 308.062 694.425 369.213C890.828 445.113 942.524 523.523 1054.37 603.783Z" stroke="white" stroke-width="1.3728" stroke-miterlimit="10"/>
<path opacity="0.1875" d="M1059.85 602.705C1409.97 863.556 767.93 756.721 634.297 570.681C571.535 483.303 240.028 300.379 320.399 274.583C400.143 248.598 550.368 305.918 702.903 370.855C891.446 451.114 953.11 523.179 1059.85 602.705Z" stroke="white" stroke-width="1.3728" stroke-miterlimit="10"/>
<path opacity="0.225" d="M1065.32 601.624C1383.17 848.369 797.095 767.617 633.129 573.404C557.771 484.144 237.201 290.703 327.387 272.314C416.857 253.717 564.449 303.699 711.385 372.488C891.985 457.039 963.699 522.731 1065.32 601.624Z" stroke="white" stroke-width="1.3728" stroke-miterlimit="10"/>
<path opacity="0.2625" d="M1070.81 600.554C1356.93 832.962 827.021 778.803 631.985 576.145C544.388 485.127 234.388 281.03 334.416 270.065C433.569 258.84 578.504 301.43 719.863 374.131C892.46 462.89 974.336 522.185 1070.81 600.554Z" stroke="white" stroke-width="1.3728" stroke-miterlimit="10"/>
<path opacity="0.3" d="M1076.29 599.472C1331.38 817.39 857.61 790.136 630.829 578.874C531.31 486.17 231.576 271.356 341.434 267.804C450.285 263.954 592.54 299.098 728.345 375.763C892.934 468.676 985.105 521.575 1076.29 599.472Z" stroke="white" stroke-width="1.3728" stroke-miterlimit="10"/>
<path opacity="0.3375" d="M1081.77 598.396C1306.69 801.775 888.777 801.519 629.669 581.613C518.471 487.239 228.762 261.688 348.434 265.547C466.994 269.082 606.604 296.745 736.823 377.406C893.444 474.423 996.107 520.935 1081.77 598.396Z" stroke="white" stroke-width="1.3728" stroke-miterlimit="10"/>
<path opacity="0.375" d="M1087.24 597.314C1282.99 786.211 920.352 812.822 628.514 584.343C505.801 488.273 225.95 252.014 355.449 263.291C483.708 274.2 620.756 294.381 745.303 379.044C894.057 480.166 1007.44 520.308 1087.24 597.314Z" stroke="white" stroke-width="1.3728" stroke-miterlimit="10"/>
<path opacity="0.4125" d="M1092.72 596.237C1260.46 770.86 952.145 823.956 627.356 587.076C493.188 489.223 223.137 242.341 362.465 261.035C500.42 279.323 635.016 292.038 753.783 380.681C894.78 485.922 1019.27 519.777 1092.72 596.237Z" stroke="white" stroke-width="1.3728" stroke-miterlimit="10"/>
<path opacity="0.45" d="M1098.2 595.154C1239.17 755.848 984.016 834.864 626.198 589.81C480.572 490.077 220.309 232.664 369.467 258.771C517.12 284.434 649.377 289.724 762.263 382.318C895.643 491.732 1031.75 519.41 1098.2 595.154Z" stroke="white" stroke-width="1.3728" stroke-miterlimit="10"/>
<path opacity="0.4875" d="M1103.67 594.078C1219.19 741.355 1015.79 845.502 625.04 592.545C467.91 490.824 217.51 222.999 376.482 256.517C533.832 289.558 663.859 287.472 770.742 383.957C896.627 497.603 1045.01 519.3 1103.67 594.078Z" stroke="white" stroke-width="1.3728" stroke-miterlimit="10"/>
<path opacity="0.525" d="M1109.15 592.997C1200.56 727.523 1047.4 855.864 623.885 595.274C455.141 491.447 214.685 213.318 383.5 254.256C550.561 294.679 678.421 285.263 779.225 385.59C897.704 503.524 1059.26 519.58 1109.15 592.997Z" stroke="white" stroke-width="1.3728" stroke-miterlimit="10"/>
<path opacity="0.5625" d="M1114.62 591.92C1183.21 714.511 1078.77 865.981 622.726 598.013C442.256 491.971 211.871 203.649 390.5 251.998C567.26 299.795 693.016 283.088 787.701 387.237C898.853 509.503 1074.58 520.353 1114.62 591.92Z" stroke="white" stroke-width="1.3728" stroke-miterlimit="10"/>
<path opacity="0.6" d="M1120.1 590.842C1167.02 702.42 1109.88 875.866 621.568 600.747C429.252 492.393 209.059 193.976 397.513 249.746C583.969 304.922 707.669 280.962 796.179 388.879C900.049 515.52 1091.02 521.708 1120.1 590.842Z" stroke="white" stroke-width="1.3728" stroke-miterlimit="10"/>
<path d="M746.326 670.122C262.936 724.298 12.6986 74.3488 494.594 319.89C735.903 442.843 742.552 222.289 972.553 354.788C1202.55 487.287 1080.33 519.328 1125.6 645.988C1182.13 804.164 871.24 656.119 746.326 670.122Z" stroke="white" stroke-width="1.3728" stroke-miterlimit="10"/>
<path opacity="0.9375" d="M755.466 677.813C275.59 715.213 11.6016 89.1279 484.807 314.346C719.907 426.24 769.935 234.313 986.995 365.996C1204.05 497.6 1102.26 538.448 1129.36 652.716C1164.36 795.76 882.146 667.939 755.466 677.813Z" stroke="white" stroke-width="1.3728" stroke-miterlimit="10"/>
<path opacity="0.875" d="M764.591 685.498C289.195 706.57 9.60259 103.63 475.017 308.807C703.507 409.539 797.312 246.346 1001.43 377.209C1205.52 507.91 1123.26 557.177 1133.13 659.454C1145.4 786.858 893.236 679.793 764.591 685.498Z" stroke="white" stroke-width="1.3728" stroke-miterlimit="10"/>
<path opacity="0.8125" d="M773.731 693.185C303.859 698.458 6.77854 117.971 465.229 303.263C686.728 392.787 824.707 258.377 1015.87 388.417C1207.01 518.222 1144.77 576.079 1136.88 666.177C1127.09 778.182 904.556 691.718 773.731 693.185Z" stroke="white" stroke-width="1.3728" stroke-miterlimit="10"/>
<path opacity="0.75" d="M782.87 700.877C319.686 690.972 3.26524 132.32 455.439 297.724C669.658 376.087 852.087 270.406 1030.31 399.629C1208.5 528.539 1166.32 594.977 1140.64 672.909C1108.83 769.498 916.123 703.724 782.87 700.877Z" stroke="white" stroke-width="1.3728" stroke-miterlimit="10"/>
<path opacity="0.6875" d="M791.997 708.561C336.783 684.201 -0.674265 146.855 445.651 292.185C652.425 359.513 879.479 282.445 1044.77 410.848C1209.99 538.856 1187.97 613.897 1144.42 679.654C1090.67 760.823 927.973 715.837 791.997 708.561Z" stroke="white" stroke-width="1.3728" stroke-miterlimit="10"/>
<path opacity="0.625" d="M801.135 716.252C355.242 678.257 -4.69125 161.777 435.874 286.652C635.16 343.135 906.858 294.473 1059.21 422.056C1211.47 549.172 1209.68 632.813 1148.18 686.381C1072.64 752.182 940.148 728.097 801.135 716.252Z" stroke="white" stroke-width="1.3728" stroke-miterlimit="10"/>
<path opacity="0.5625" d="M810.261 723.938C375.093 673.222 -8.47639 177.213 426.086 281.108C618.013 326.993 934.239 306.502 1073.66 433.276C1212.97 559.496 1231.54 651.8 1151.96 693.122C1054.76 743.597 952.657 740.534 810.261 723.938Z" stroke="white" stroke-width="1.3728" stroke-miterlimit="10"/>
<path opacity="0.5" d="M819.4 731.629C396.372 669.188 -11.733 193.235 416.296 275.569C601.087 311.113 961.632 318.536 1088.1 444.488C1214.45 569.801 1253.5 670.824 1155.72 699.853C1037.03 735.086 965.538 753.197 819.4 731.629Z" stroke="white" stroke-width="1.3728" stroke-miterlimit="10"/>
<path opacity="0.4375" d="M828.539 739.32C419.013 666.219 -14.2658 209.857 406.507 270.029C584.461 295.473 989.012 330.565 1102.54 455.695C1215.94 580.117 1275.6 689.939 1159.49 706.587C1019.45 726.662 978.828 766.149 828.539 739.32Z" stroke="white" stroke-width="1.3728" stroke-miterlimit="10"/>
<path opacity="0.375" d="M837.664 747.005C442.892 664.333 -15.996 227.02 396.719 264.485C568.163 280.048 1016.39 342.593 1116.98 466.908C1217.43 590.434 1297.8 709.124 1163.24 713.319C1002.01 718.348 992.506 779.432 837.664 747.005Z" stroke="white" stroke-width="1.3728" stroke-miterlimit="10"/>
<path opacity="0.3125" d="M846.803 754.696C467.791 663.527 -16.9036 244.65 386.929 258.945C552.198 264.795 1043.77 354.621 1131.43 478.126C1218.93 600.757 1320.09 728.4 1167.01 720.053C984.651 710.118 1006.58 793.129 846.803 754.696Z" stroke="white" stroke-width="1.3728" stroke-miterlimit="10"/>
<path opacity="0.25" d="M855.929 762.381C493.397 663.727 -17.0701 262.644 377.14 253.407C536.521 249.674 1071.15 366.654 1145.87 489.34C1220.4 611.068 1342.4 747.732 1170.78 726.792C967.322 701.959 1020.99 807.298 855.929 762.381Z" stroke="white" stroke-width="1.3728" stroke-miterlimit="10"/>
<path opacity="0.1875" d="M865.068 770.072C519.246 664.785 -16.5666 280.906 367.353 247.863C521.088 234.632 1098.55 378.685 1160.31 500.547C1221.89 621.384 1364.71 767.108 1174.54 733.519C949.996 693.859 1035.64 822.002 865.068 770.072Z" stroke="white" stroke-width="1.3728" stroke-miterlimit="10"/>
<path opacity="0.125" d="M874.207 777.764C544.754 666.46 -15.5195 299.355 357.576 242.33C505.886 219.663 1125.94 390.724 1174.77 511.766C1223.39 631.707 1386.99 786.522 1178.32 740.264C932.609 685.782 1050.35 837.272 874.207 777.764Z" stroke="white" stroke-width="1.3728" stroke-miterlimit="10"/>
<path opacity="0.0625" d="M883.332 785.448C569.188 668.408 -14.0408 317.91 347.773 236.784C490.827 204.71 1153.3 402.746 1189.19 522.972C1224.85 642.01 1409.2 805.933 1182.06 746.984C915.18 677.721 1064.84 853.071 883.332 785.448Z" stroke="white" stroke-width="1.3728" stroke-miterlimit="10"/>
<path opacity="0.025" d="M364.903 408.88C-426.051 -22.0286 695.037 126.739 844.486 395.355C918.81 528.954 1454.15 686.19 1454.41 792.524C1454.84 898.889 1207.64 787.742 972.063 742.56C678.735 686.916 574.13 522.865 364.903 408.88Z" stroke="white" stroke-width="1.3728" stroke-miterlimit="10"/>
<path opacity="0.05" d="M359.747 412.077C-384.534 -4.78544 657.389 116.636 843.52 390.324C935.156 525.073 1465.21 702.343 1448.52 798.131C1432.17 893.989 1193.15 794.427 961.351 741.741C672.341 676.059 562.045 525.381 359.747 412.077Z" stroke="white" stroke-width="1.3728" stroke-miterlimit="10"/>
<path opacity="0.075" d="M354.581 415.262C-342.765 13.0643 619.011 105.983 842.541 385.284C951.099 520.926 1476.26 718.485 1442.62 803.735C1409.49 889.086 1179.03 801.443 950.623 740.92C666.427 665.619 550.162 528.064 354.581 415.262Z" stroke="white" stroke-width="1.3728" stroke-miterlimit="10"/>
<path opacity="0.1" d="M349.426 418.458C-300.807 31.5772 579.741 94.7977 841.587 380.263C966.591 516.54 1487.35 734.651 1436.75 809.352C1386.83 884.196 1165.05 808.527 939.922 740.111C660.649 655.241 538.471 530.934 349.426 418.458Z" stroke="white" stroke-width="1.3728" stroke-miterlimit="10"/>
<path opacity="0.125" d="M344.26 421.644C-258.828 50.7228 539.422 83.0967 840.608 375.225C981.511 511.892 1498.4 750.794 1430.87 814.964C1364.16 879.306 1151.15 815.666 929.208 739.298C655.012 644.951 526.922 533.991 344.26 421.644Z" stroke="white" stroke-width="1.3728" stroke-miterlimit="10"/>
<path opacity="0.15" d="M339.104 424.84C-216.964 70.5011 498.04 71.0047 839.642 370.192C995.917 507.061 1509.48 766.949 1424.98 820.57C1341.49 874.405 1137.38 822.884 918.495 738.478C649.51 634.759 515.482 537.23 339.104 424.84Z" stroke="white" stroke-width="1.3728" stroke-miterlimit="10"/>
<path opacity="0.175" d="M333.936 428.03C-175.432 90.8483 455.655 58.6755 838.676 365.16C1009.84 502.125 1520.55 783.098 1419.09 826.182C1318.83 869.509 1123.7 830.195 907.781 737.664C644.134 624.683 504.07 540.649 333.936 428.03Z" stroke="white" stroke-width="1.3728" stroke-miterlimit="10"/>
<path opacity="0.2" d="M328.782 431.222C-134.446 111.688 412.445 46.2865 837.708 360.132C1023.39 497.167 1531.61 799.252 1413.22 831.8C1296.17 864.62 1110.09 837.603 897.08 736.857C638.81 614.707 492.61 544.233 328.782 431.222Z" stroke="white" stroke-width="1.3728" stroke-miterlimit="10"/>
<path opacity="0.225" d="M323.614 434.411C-94.2497 132.906 368.642 34.0163 836.729 355.093C1036.7 492.258 1542.68 815.4 1407.32 837.404C1273.49 859.722 1096.44 845.055 886.366 736.042C633.466 604.806 480.956 547.939 323.614 434.411Z" stroke="white" stroke-width="1.3728" stroke-miterlimit="10"/>
<path opacity="0.25" d="M318.461 437.603C-55.1006 154.341 324.561 22.033 835.764 350.061C1049.9 487.466 1553.74 831.549 1401.44 843.011C1250.82 854.821 1082.72 852.539 875.654 735.223C628.049 594.948 468.96 551.725 318.461 437.603Z" stroke="white" stroke-width="1.3728" stroke-miterlimit="10"/>
<path opacity="0.275" d="M313.292 440.793C-17.2969 175.788 280.428 10.4229 834.796 345.033C1063.12 482.837 1564.82 847.704 1395.56 848.628C1228.16 849.932 1068.91 860.04 864.953 734.415C622.497 585.092 456.422 555.524 313.292 440.793Z" stroke="white" stroke-width="1.3728" stroke-miterlimit="10"/>
<path opacity="0.3" d="M308.137 443.989C18.908 197.015 236.453 -0.763085 833.829 340.001C1076.43 478.388 1575.88 863.858 1389.68 854.24C1205.48 845.034 1054.96 867.505 854.224 733.594C616.782 575.193 443.094 559.227 308.137 443.989Z" stroke="white" stroke-width="1.3728" stroke-miterlimit="10"/>
<path opacity="0.325" d="M302.971 447.175C53.2841 217.747 192.783 -11.5163 832.865 334.969C1089.89 474.105 1586.95 880.007 1383.79 859.851C1182.81 840.138 1040.86 874.92 843.525 732.786C610.897 565.236 428.695 562.695 302.971 447.175Z" stroke="white" stroke-width="1.3728" stroke-miterlimit="10"/>
<path opacity="0.35" d="M297.816 450.371C85.618 237.666 149.529 -21.8611 831.899 329.937C1103.56 469.991 1598.03 896.162 1377.91 865.462C1160.14 835.242 1026.63 882.279 832.81 731.972C604.875 555.216 412.948 565.775 297.816 450.371Z" stroke="white" stroke-width="1.3728" stroke-miterlimit="10"/>
<path opacity="0.375" d="M292.649 453.557C115.817 256.487 106.698 -31.8462 830.917 324.903C1117.42 466.031 1609.07 912.309 1372.01 871.067C1137.46 830.34 1012.29 889.569 822.082 731.151C598.723 545.116 395.593 568.28 292.649 453.557Z" stroke="white" stroke-width="1.3728" stroke-miterlimit="10"/>
<path opacity="0.4" d="M287.494 456.752C143.88 273.916 64.33 -41.5127 829.952 319.87C1131.49 462.2 1620.14 928.457 1366.13 876.684C1114.81 825.45 997.904 896.824 811.382 730.342C592.471 534.954 376.472 570.028 287.494 456.752Z" stroke="white" stroke-width="1.3728" stroke-miterlimit="10"/>
</g>
</svg>
