<svg width="137" height="137" viewBox="0 0 137 137" fill="none" xmlns="http://www.w3.org/2000/svg">
<ellipse cx="68.4715" cy="67.9209" rx="68.4715" ry="67.9209" fill="#00BB29"/>
<path d="M55.7031 68.4822C55.7031 72.1308 55.7031 75.7795 56.1408 79.4281H55.3018C51.3495 80.5503 47.5692 82.2076 44.0657 84.3538C41.9668 85.6137 39.9992 87.0804 38.1923 88.7321C34.1615 82.7211 32.0093 75.6469 32.0093 68.4092C32.0093 61.1715 34.1615 54.0973 38.1923 48.0862C39.9992 49.738 41.9668 51.2047 44.0657 52.4646C47.5483 54.6615 51.317 56.3681 55.2653 57.5362H56.1408C55.849 61.1849 55.7031 64.8335 55.7031 68.4822ZM40.3812 45.2038C42.1779 46.8784 44.1466 48.3582 46.2545 49.6187C49.3911 51.487 52.7657 52.923 56.2867 53.8876C56.7006 49.5226 57.4322 45.1935 58.4756 40.9349C59.1232 38.0397 60.0898 35.2252 61.3576 32.543C53.1207 34.2327 45.7148 38.7027 40.3812 45.2038ZM75.4391 32.6525C76.707 35.3346 77.6735 38.1491 78.3211 41.0444C79.3593 45.2671 80.0909 49.5593 80.51 53.8876C84.0463 52.9002 87.4331 51.4397 90.5786 49.5457C92.7212 48.3147 94.7268 46.8592 96.5615 45.2038C91.1736 38.7148 83.7137 34.282 75.4391 32.6525ZM60.0078 82.0916C60.4737 87.1707 61.3769 92.2002 62.7074 97.124C63.3924 99.8862 64.4868 102.53 65.9541 104.969H68.4713H70.9885C72.4492 102.553 73.5434 99.9339 74.2353 97.197C75.5658 92.2732 76.469 87.2437 76.9348 82.1646C71.354 81.0093 65.5983 80.9845 60.0078 82.0916ZM77.2267 58.5214C74.3418 59.0804 71.4099 59.3614 68.4713 59.3606C65.5327 59.3614 62.6009 59.0804 59.7159 58.5214C59.4606 61.6227 59.3511 64.9795 59.3511 68.4822C59.3511 71.9849 59.3511 75.3416 59.7159 78.4794C65.4998 77.3662 71.4428 77.3662 77.2267 78.4794C77.4821 75.3781 77.5915 72.0213 77.5915 68.5187C77.5915 65.016 77.4821 61.6227 77.2267 58.5214ZM74.2353 39.8403C73.5502 37.0781 72.4558 34.434 70.9885 31.9957H68.4713H65.9541C64.4934 34.4114 63.3993 37.0304 62.7074 39.7673C61.3769 44.6912 60.4737 49.7206 60.0078 54.7998C65.5935 55.931 71.3492 55.931 76.9348 54.7998C76.4648 49.7452 75.5617 44.7403 74.2353 39.8403ZM98.7503 48.1592C96.9434 49.8109 94.9758 51.2777 92.8769 52.5376C89.3774 54.7092 85.5969 56.3911 81.6409 57.5362H80.8018C81.0937 61.1849 81.2396 64.8335 81.2396 68.4822C81.2396 72.1308 81.2396 75.7795 80.8018 79.4281L81.6773 79.647C85.618 80.7694 89.3863 82.4267 92.8769 84.5727C94.9758 85.8326 96.9434 87.2993 98.7503 88.9511C102.781 82.94 104.933 75.8658 104.933 68.6281C104.933 61.3904 102.781 54.3162 98.7503 48.3052V48.1592ZM90.6881 87.3457C87.5515 85.4773 84.1769 84.0413 80.6559 83.0767C80.242 87.4418 79.5105 91.7708 78.467 96.0294C77.8194 98.9247 76.8529 101.739 75.5851 104.421C83.8596 102.792 91.3195 98.3589 96.7074 91.87C94.8703 90.1488 92.8521 88.6318 90.6881 87.3457ZM58.6215 95.92C57.5833 91.6973 56.8518 87.405 56.4327 83.0767C52.8963 84.0642 49.5095 85.5247 46.364 87.4186C44.2214 88.6496 42.2158 90.1051 40.3812 91.7605C45.769 98.2495 53.2289 102.682 61.5035 104.312C60.2357 101.63 59.2691 98.8152 58.6215 95.92Z" fill="white"/>
<path d="M70.423 119V125.828H68.9793V120.19H66.0518V119H70.423Z" fill="white"/>
<path d="M62.9885 118.446C63.5122 118.503 63.9515 118.658 64.3063 118.911C64.6586 119.167 64.9152 119.501 65.076 119.914C65.2365 120.33 65.2875 120.806 65.2292 121.343C65.1722 121.866 65.0206 122.315 64.7743 122.688C64.528 123.062 64.2083 123.339 63.8152 123.52C63.42 123.7 62.9726 123.764 62.4732 123.709C62.1373 123.673 61.8305 123.585 61.5528 123.445C61.2727 123.307 61.036 123.119 60.8427 122.881C60.6473 122.643 60.5064 122.355 60.4202 122.017C60.3338 121.681 60.3141 121.297 60.3612 120.864L60.4034 120.476L64.7024 120.943L64.6073 121.818L61.6374 121.495C61.6153 121.699 61.6399 121.884 61.7112 122.05C61.7825 122.217 61.8918 122.353 62.0391 122.458C62.1839 122.565 62.3591 122.63 62.5646 122.653C62.779 122.676 62.9744 122.647 63.151 122.566C63.3251 122.486 63.4675 122.369 63.5784 122.213C63.6889 122.059 63.7563 121.882 63.7804 121.681L63.8708 120.85C63.8982 120.598 63.8755 120.375 63.8026 120.181C63.7275 119.988 63.6092 119.832 63.4477 119.713C63.2861 119.595 63.0871 119.523 62.8507 119.498C62.6938 119.481 62.5478 119.487 62.4126 119.517C62.2774 119.547 62.1586 119.601 62.0562 119.68C61.9538 119.758 61.8713 119.858 61.8087 119.981L60.5121 119.753C60.6125 119.446 60.7782 119.187 61.0092 118.975C61.2377 118.765 61.5204 118.613 61.8572 118.518C62.1916 118.424 62.5687 118.4 62.9885 118.446Z" fill="white"/>
<path d="M54.8845 122.299L55.1138 121.257L58.1258 121.92L57.8965 122.962L54.8845 122.299ZM56.949 124.01L55.5618 123.705L56.588 119.042C56.6162 118.914 56.6187 118.81 56.5954 118.729C56.5716 118.651 56.5281 118.59 56.4648 118.547C56.3994 118.503 56.32 118.471 56.2266 118.45C56.1615 118.436 56.0952 118.427 56.0277 118.423C55.9597 118.422 55.9076 118.421 55.8715 118.42L55.8805 117.339C55.9547 117.333 56.0579 117.33 56.19 117.329C56.3226 117.326 56.4797 117.342 56.6613 117.375C56.9985 117.435 57.2817 117.544 57.5111 117.702C57.7383 117.859 57.8977 118.06 57.9893 118.306C58.081 118.551 58.0896 118.838 58.0153 119.165L56.949 124.01Z" fill="white"/>
<path d="M49.6079 122.466L49.8378 121.784C49.9031 121.59 50.0077 121.405 50.1517 121.228C50.2928 121.053 50.4557 120.896 50.6403 120.759C50.8241 120.624 51.0107 120.519 51.2001 120.445L51.6759 120.996C51.5145 121.127 51.3598 121.28 51.2116 121.455C51.0613 121.629 50.9411 121.851 50.851 122.118L50.6189 122.807L49.6079 122.466Z" fill="white"/>
<path d="M43.8505 116.599L45.0642 117.073C45.0377 117.183 45.0391 117.294 45.0684 117.405C45.0967 117.519 45.1541 117.625 45.2406 117.724C45.3242 117.824 45.4406 117.908 45.5899 117.977C45.7896 118.07 45.9777 118.105 46.1541 118.084C46.3295 118.065 46.4494 117.986 46.5138 117.846C46.5651 117.735 46.5641 117.621 46.5108 117.503C46.4575 117.386 46.3337 117.254 46.1393 117.107L45.3765 116.549C44.9675 116.247 44.6997 115.942 44.573 115.633C44.4463 115.325 44.4604 115.003 44.6153 114.668C44.7562 114.363 44.9696 114.138 45.2555 113.991C45.5395 113.843 45.8666 113.776 46.237 113.791C46.6044 113.807 46.9899 113.908 47.3933 114.095C48.0086 114.379 48.4396 114.734 48.6862 115.159C48.9298 115.586 48.9803 116.035 48.8375 116.508L47.5388 115.988C47.5873 115.782 47.5608 115.596 47.4592 115.429C47.3568 115.264 47.1905 115.129 46.9606 115.022C46.7346 114.918 46.533 114.877 46.3557 114.9C46.1754 114.925 46.0521 115.006 45.9857 115.144C45.9336 115.262 45.9387 115.381 46.001 115.5C46.0624 115.622 46.1846 115.749 46.3676 115.883L47.0984 116.416C47.5103 116.717 47.7754 117.03 47.8937 117.357C48.01 117.683 47.9879 118.019 47.8274 118.366C47.6892 118.665 47.4896 118.884 47.2283 119.026C46.9651 119.166 46.6591 119.226 46.3105 119.207C45.9598 119.187 45.5858 119.085 45.1884 118.901C44.6013 118.629 44.1968 118.292 43.9747 117.887C43.7505 117.483 43.7092 117.053 43.8505 116.599Z" fill="white"/>
<path d="M40.1406 110.173L36.0086 115.609L34.8594 114.736L36.5642 112.492L34.2312 110.719L32.5263 112.962L31.3797 112.09L35.5117 106.654L36.6583 107.525L34.9515 109.771L37.2845 111.545L38.9913 109.299L40.1406 110.173Z" fill="white"/>
<path d="M34.2618 105.268C34.499 105.493 34.6714 105.734 34.7791 105.992C34.8851 106.252 34.9151 106.514 34.8688 106.78C34.8194 107.045 34.6785 107.301 34.4462 107.546C34.2505 107.753 34.0483 107.89 33.8395 107.959C33.6307 108.027 33.4204 108.042 33.2087 108.004C32.997 107.966 32.7874 107.89 32.5799 107.776C32.3708 107.66 32.1659 107.524 31.9651 107.368C31.7275 107.186 31.5334 107.042 31.3827 106.936C31.2305 106.831 31.1055 106.771 31.0076 106.755C30.9096 106.738 30.8232 106.77 30.7483 106.849L30.7346 106.863C30.5894 107.017 30.5254 107.181 30.5428 107.357C30.5585 107.531 30.6543 107.701 30.8302 107.868C31.0158 108.044 31.2024 108.143 31.3901 108.164C31.5762 108.187 31.7451 108.155 31.8968 108.066L32.7771 109.047C32.5147 109.227 32.2345 109.332 31.9366 109.362C31.6372 109.393 31.3333 109.347 31.0249 109.224C30.7134 109.1 30.4092 108.898 30.1123 108.616C29.9058 108.421 29.731 108.209 29.5881 107.982C29.4435 107.753 29.346 107.518 29.2954 107.278C29.2433 107.035 29.2501 106.794 29.3159 106.553C29.3802 106.314 29.517 106.084 29.7264 105.862L32.1017 103.354L33.0795 104.281L32.5912 104.797L32.6202 104.824C32.79 104.764 32.9669 104.738 33.151 104.744C33.3336 104.751 33.5188 104.797 33.7066 104.88C33.8928 104.964 34.0779 105.094 34.2618 105.268ZM33.2925 105.7C33.1408 105.556 32.9786 105.459 32.8059 105.409C32.6316 105.36 32.4625 105.356 32.2985 105.396C32.1345 105.437 31.9906 105.523 31.8668 105.653L31.4931 106.048C31.5452 106.058 31.608 106.08 31.6812 106.116C31.7514 106.152 31.828 106.195 31.9112 106.247C31.9928 106.299 32.0736 106.353 32.1537 106.408C32.2323 106.464 32.3036 106.514 32.3677 106.56C32.5056 106.657 32.638 106.729 32.7651 106.775C32.8921 106.822 33.012 106.836 33.1247 106.818C33.2358 106.8 33.3373 106.743 33.429 106.647C33.562 106.506 33.6128 106.351 33.5814 106.18C33.5469 106.01 33.4506 105.85 33.2925 105.7Z" fill="white"/>
<path d="M24.3841 102.221L29.4461 100.27L30.4821 101.49L27.7381 106.17L26.7668 105.027L28.8709 101.844L28.8364 101.803L25.3575 103.367L24.3841 102.221Z" fill="white"/>
<path d="M26.8777 96.6205C27.1734 97.0565 27.3395 97.4918 27.3762 97.9261C27.4097 98.3599 27.3211 98.7719 27.1102 99.1619C26.8975 99.5533 26.5676 99.9005 26.1206 100.204C25.6846 100.499 25.2446 100.674 24.8005 100.728C24.3564 100.782 23.9383 100.718 23.546 100.536C23.1525 100.351 22.8148 100.051 22.5329 99.6353C22.3434 99.3556 22.2119 99.0647 22.1387 98.7626C22.0624 98.4598 22.0523 98.1578 22.1085 97.8565C22.1635 97.5533 22.2919 97.2595 22.4937 96.9749C22.6937 96.6915 22.974 96.4276 23.3346 96.1831L23.6574 95.9642L26.084 99.5436L25.3555 100.038L23.6792 97.5649C23.5099 97.6796 23.3849 97.8181 23.3042 97.9803C23.2235 98.1425 23.1906 98.3138 23.2056 98.4943C23.2174 98.6743 23.2814 98.8498 23.3974 99.0209C23.5184 99.1994 23.667 99.3295 23.8433 99.4114C24.0166 99.4926 24.1984 99.5251 24.3888 99.5088C24.5773 99.4938 24.7559 99.4304 24.9245 99.3187L25.6172 98.849C25.8269 98.7068 25.9819 98.5453 26.0822 98.3645C26.1813 98.1818 26.2236 97.9907 26.2091 97.791C26.1946 97.5914 26.1206 97.3931 25.9871 97.1963C25.8986 97.0656 25.7991 96.9585 25.6887 96.8749C25.5783 96.7913 25.4602 96.7358 25.3342 96.7084C25.2082 96.6811 25.0782 96.6833 24.944 96.7152L24.2786 95.5792C24.5773 95.4572 24.8821 95.4157 25.1931 95.4546C25.501 95.4928 25.8003 95.6095 26.0909 95.8045C26.3785 95.9989 26.6408 96.2709 26.8777 96.6205Z" fill="white"/>
<path d="M21.9929 87.4845C22.1138 87.788 22.1689 88.0795 22.1582 88.359C22.1454 88.6392 22.0623 88.8901 21.9089 89.1115C21.7525 89.3318 21.5175 89.5044 21.2036 89.6295C20.9393 89.7348 20.698 89.7747 20.4797 89.7493C20.2614 89.7238 20.0642 89.6492 19.8881 89.5256C19.712 89.4019 19.5538 89.2449 19.4133 89.0544C19.272 88.8619 19.1431 88.6524 19.0266 88.4261C18.8874 88.1609 18.7718 87.9486 18.6795 87.7891C18.5852 87.6305 18.497 87.5232 18.415 87.4674C18.3329 87.4116 18.2413 87.4038 18.1401 87.4441L18.1215 87.4515C17.9254 87.5297 17.7983 87.6521 17.7403 87.8188C17.6814 87.9834 17.6968 88.1783 17.7865 88.4034C17.8811 88.6409 18.009 88.8088 18.1703 88.9073C18.3295 89.0065 18.4966 89.0476 18.6716 89.0305L19.0587 90.2904C18.7449 90.3437 18.4465 90.3214 18.1635 90.2236C17.8784 90.1266 17.6219 89.9573 17.394 89.7155C17.1632 89.4725 16.9721 89.161 16.8208 88.781C16.7155 88.5167 16.6457 88.2514 16.6114 87.9851C16.5763 87.7168 16.5863 87.4627 16.6415 87.223C16.6959 86.9812 16.8036 86.7648 16.9644 86.5739C17.1231 86.3838 17.344 86.2324 17.6269 86.1197L20.8357 84.841L21.3342 86.0923L20.6745 86.3552L20.6893 86.3924C20.8684 86.4096 21.0402 86.4595 21.2048 86.5423C21.3673 86.6259 21.5163 86.7448 21.6519 86.8989C21.7854 87.0539 21.8991 87.2491 21.9929 87.4845ZM20.9317 87.4695C20.8544 87.2754 20.7479 87.1192 20.6123 87.001C20.4746 86.8835 20.3228 86.8088 20.1569 86.7768C19.991 86.7448 19.8245 86.7622 19.6572 86.8288L19.1523 87.03C19.1956 87.0606 19.243 87.1075 19.2945 87.1707C19.3432 87.2327 19.3945 87.3044 19.4484 87.3858C19.5003 87.468 19.5512 87.5506 19.601 87.6337C19.6487 87.7175 19.6922 87.7935 19.7313 87.8617C19.8157 88.0075 19.9057 88.1284 20.0014 88.2242C20.097 88.3201 20.1999 88.3832 20.31 88.4135C20.4181 88.4446 20.5341 88.4355 20.658 88.3861C20.8377 88.3145 20.9491 88.1947 20.9922 88.0268C21.0325 87.8576 21.0123 87.6718 20.9317 87.4695Z" fill="white"/>
<path d="M18.8707 76.2268C18.9555 76.7445 18.9189 77.2078 18.7606 77.6166C18.5999 78.0236 18.3395 78.3592 17.9796 78.6231C17.6193 78.8849 17.1836 79.0577 16.6725 79.1415C16.1549 79.2264 15.6845 79.2011 15.2613 79.0655C14.8356 78.9281 14.4827 78.692 14.2026 78.3572C13.9203 78.0229 13.7372 77.6001 13.6534 77.089C13.5812 76.6481 13.5979 76.2489 13.7038 75.8915C13.8096 75.534 13.9915 75.235 14.2494 74.9945C14.5073 74.754 14.8298 74.5919 15.217 74.5081L15.4339 75.8308C15.1877 75.9094 15.001 76.0414 14.8737 76.2267C14.7438 76.4102 14.7 76.6302 14.742 76.8869C14.7776 77.104 14.8679 77.2841 15.013 77.427C15.1555 77.568 15.346 77.6652 15.5845 77.7184C15.823 77.7717 16.1012 77.7722 16.4193 77.7201C16.7417 77.6672 17.0087 77.5784 17.2203 77.4536C17.4315 77.3266 17.583 77.1723 17.6748 76.9905C17.7667 76.8088 17.7948 76.6093 17.7592 76.3922C17.7329 76.232 17.6765 76.0938 17.5898 75.9773C17.5028 75.8587 17.3899 75.768 17.2513 75.7051C17.11 75.6404 16.9484 75.6095 16.7664 75.6123L16.5496 74.2896C16.9392 74.2482 17.2965 74.2978 17.6213 74.4382C17.9436 74.5768 18.214 74.7972 18.4325 75.0992C18.6509 75.4013 18.797 75.7771 18.8707 76.2268Z" fill="white"/>
<path d="M15.3433 72.327L18.2997 72.1666L18.3766 73.5849L11.5582 73.9547L11.4835 72.5763L14.0903 72.435L14.0871 72.375C13.7789 72.276 13.5325 72.1024 13.3476 71.8542C13.1605 71.6061 13.0564 71.2879 13.0354 70.8994C13.0161 70.5443 13.077 70.2305 13.2181 69.9579C13.3568 69.6833 13.5665 69.4649 13.847 69.3027C14.1253 69.1385 14.4643 69.0467 14.8639 69.0272L18.1199 68.8507L18.1968 70.2689L15.1938 70.4318C14.8785 70.4467 14.6376 70.5399 14.471 70.7114C14.3043 70.8807 14.2288 71.1096 14.2445 71.3982C14.2549 71.5913 14.3053 71.76 14.3954 71.9042C14.4855 72.0462 14.6116 72.1552 14.7738 72.231C14.9336 72.3047 15.1234 72.3367 15.3433 72.327Z" fill="white"/>
<path d="M18.3231 66.1924C18.3054 66.5187 18.2331 66.8064 18.1061 67.0555C17.9768 67.3045 17.7961 67.4972 17.5638 67.6338C17.3295 67.768 17.0436 67.826 16.7063 67.8077C16.4222 67.7923 16.1864 67.7272 15.999 67.6124C15.8115 67.4976 15.6638 67.3471 15.556 67.161C15.4481 66.9748 15.3704 66.7658 15.3228 66.5339C15.2754 66.2998 15.2464 66.0556 15.2357 65.8013C15.2207 65.5022 15.2048 65.2609 15.1881 65.0775C15.1691 64.8939 15.1341 64.7595 15.083 64.6744C15.032 64.5893 14.9521 64.5438 14.8434 64.5379L14.8234 64.5368C14.6125 64.5253 14.4458 64.5831 14.3231 64.71C14.2006 64.8347 14.1328 65.018 14.1197 65.2599C14.1059 65.5152 14.1514 65.7213 14.2565 65.8784C14.3593 66.0353 14.4937 66.1428 14.6597 66.2008L14.4821 67.5067C14.1749 67.4233 13.9135 67.2778 13.6977 67.0702C13.4796 66.8625 13.318 66.6011 13.2126 66.2859C13.1052 65.9685 13.0625 65.6055 13.0846 65.1971C13.1 64.913 13.1481 64.6429 13.2287 64.3869C13.3095 64.1286 13.4253 63.9022 13.5761 63.7078C13.727 63.5112 13.9155 63.36 14.1416 63.2543C14.3655 63.1485 14.6295 63.1038 14.9336 63.1203L18.3827 63.3073L18.3098 64.6524L17.6006 64.6139L17.5985 64.6539C17.7538 64.7447 17.8888 64.8622 18.0034 65.0064C18.1158 65.1505 18.2012 65.321 18.2595 65.5178C18.3157 65.7145 18.3369 65.9394 18.3231 66.1924ZM17.3663 65.7332C17.3777 65.5245 17.3466 65.3381 17.2731 65.1738C17.1974 65.0094 17.091 64.8779 16.9539 64.7792C16.8168 64.6805 16.6584 64.6263 16.4786 64.6165L15.9359 64.5871C15.9623 64.633 15.9857 64.6955 16.0059 64.7745C16.024 64.8512 16.0404 64.9378 16.0552 65.0343C16.0678 65.1307 16.0793 65.2271 16.0897 65.3233C16.0978 65.4195 16.1053 65.5067 16.1122 65.585C16.1276 65.7528 16.1586 65.9003 16.2051 66.0275C16.2516 66.1547 16.3185 66.2551 16.4058 66.3289C16.4908 66.4025 16.5999 66.4429 16.7331 66.4501C16.9262 66.4606 17.0776 66.3987 17.1873 66.2644C17.2949 66.1278 17.3546 65.9507 17.3663 65.7332Z" fill="white"/>
<path d="M14.0669 57.8003L15.1198 57.9729L14.6209 61.0164L13.568 60.8438L14.0669 57.8003ZM12.4704 59.9543L12.7002 58.5526L17.4118 59.3252C17.5412 59.3464 17.6454 59.3432 17.7242 59.3156C17.8009 59.2876 17.8592 59.2409 17.8993 59.1754C17.9396 59.1076 17.9676 59.0266 17.983 58.9323C17.9938 58.8665 17.9991 58.7998 17.9989 58.7322C17.9966 58.6642 17.995 58.6122 17.9941 58.576L19.0733 58.5266C19.0837 58.6003 19.0928 58.7032 19.1004 58.8351C19.1103 58.9673 19.1036 59.125 19.0803 59.3082C19.0381 59.6481 18.9446 59.9369 18.7998 60.1744C18.6553 60.4098 18.463 60.5799 18.2229 60.6846C17.9827 60.7894 17.6972 60.8136 17.3663 60.7571L12.4704 59.9543Z" fill="white"/>
<path d="M20.6894 49.1379C20.5898 49.3877 20.438 49.5916 20.2339 49.7496C20.0278 49.9067 19.7968 50.0061 19.5409 50.0477C19.2859 50.0872 19.0335 50.0572 18.7836 49.9577C18.5317 49.8573 18.3278 49.7054 18.1719 49.5021C18.0148 49.296 17.9164 49.0653 17.8769 48.8103C17.8353 48.5544 17.8642 48.3016 17.9637 48.0517C18.0641 47.7998 18.217 47.5963 18.4223 47.4412C18.6264 47.2833 18.8559 47.1845 19.111 47.145C19.3647 47.1025 19.6176 47.1315 19.8695 47.2319C20.1193 47.3315 20.3228 47.4844 20.48 47.6905C20.6379 47.8947 20.7377 48.1246 20.7793 48.3805C20.8197 48.6335 20.7897 48.8859 20.6894 49.1379Z" fill="white"/>
<path d="M25.8452 41.7246L20.1937 37.8922L21.0038 36.6972L25.6702 39.8615L27.3128 37.4384L28.298 38.1065L25.8452 41.7246Z" fill="white"/>
<path d="M30.2847 35.8968C29.9437 36.2983 29.5689 36.5749 29.1602 36.7264C28.7513 36.8748 28.3307 36.8996 27.8985 36.8008C27.4646 36.7005 27.0418 36.4755 26.6301 36.1258C26.2286 35.7847 25.9425 35.4074 25.7716 34.9939C25.6008 34.5805 25.5508 34.1603 25.6217 33.7335C25.694 33.3049 25.8928 32.8992 26.218 32.5163C26.4367 32.2588 26.6818 32.0543 26.9533 31.9029C27.2245 31.7483 27.5128 31.6578 27.8181 31.6314C28.1249 31.6032 28.4424 31.6483 28.7705 31.7667C29.097 31.8836 29.4262 32.0831 29.7583 32.3652L30.0556 32.6178L27.2562 35.9139L26.5854 35.344L28.5192 33.067C28.3634 32.9346 28.1966 32.8512 28.0187 32.8168C27.8409 32.7823 27.667 32.7965 27.4971 32.8592C27.3269 32.9188 27.1749 33.0274 27.0411 33.185C26.9015 33.3493 26.8159 33.5274 26.7842 33.7192C26.7523 33.9079 26.7696 34.0918 26.8362 34.2709C26.9012 34.4486 27.01 34.6037 27.1627 34.7364L27.8005 35.2782C27.9936 35.4423 28.1907 35.5484 28.3917 35.5967C28.5942 35.6433 28.7897 35.6329 28.9781 35.5655C29.1666 35.4982 29.3378 35.3738 29.4918 35.1925C29.5939 35.0722 29.6705 34.9477 29.7215 34.819C29.7725 34.6902 29.7944 34.5615 29.7871 34.4328C29.7797 34.3041 29.7428 34.1793 29.6762 34.0586L30.5926 33.1134C30.79 33.3686 30.9116 33.6512 30.9573 33.9614C31.0028 34.2683 30.9705 34.588 30.8604 34.9202C30.75 35.2494 30.5581 35.5749 30.2847 35.8968Z" fill="white"/>
<path d="M31.6428 27.0254L32.3765 27.8001L30.1376 29.9212L29.4039 29.1465L31.6428 27.0254ZM29.0685 27.7741L30.0996 26.7973L33.3828 30.2638C33.473 30.359 33.5578 30.4195 33.6373 30.4453C33.7152 30.4694 33.79 30.4675 33.8615 30.4395C33.9346 30.4101 34.0058 30.3625 34.0752 30.2967C34.1236 30.2509 34.1682 30.201 34.209 30.147C34.2482 30.0915 34.2785 30.0491 34.2997 30.0198L35.1887 30.6335C35.1523 30.6986 35.0973 30.7859 35.0236 30.8956C34.9514 31.0068 34.8506 31.1283 34.7213 31.2601C34.4819 31.5052 34.2328 31.6785 33.9737 31.78C33.7163 31.8799 33.4603 31.8989 33.2057 31.837C32.9512 31.775 32.7093 31.6215 32.4801 31.3763L29.0685 27.7741Z" fill="white"/>
<path d="M34.466 22.5634L34.9018 23.1368C35.0255 23.2996 35.1201 23.4902 35.1855 23.7085C35.2514 23.9237 35.2893 24.1462 35.2992 24.376C35.3078 24.604 35.2898 24.8173 35.2453 25.0159L34.5224 25.1006C34.5046 24.8935 34.4648 24.6795 34.4029 24.4585C34.3428 24.2361 34.2273 24.0126 34.0565 23.7879L33.6167 23.2092L34.466 22.5634Z" fill="white"/>
<path d="M42.5519 21.0898L41.479 21.8288C41.4027 21.745 41.3102 21.684 41.2015 21.6456C41.0917 21.6053 40.9716 21.5933 40.8412 21.6095C40.7117 21.6226 40.5764 21.6716 40.4355 21.7564C40.2469 21.8698 40.1119 22.0055 40.0306 22.1635C39.948 22.3195 39.9463 22.4632 40.0254 22.5946C40.0884 22.6994 40.1836 22.7628 40.3109 22.7847C40.4383 22.8067 40.617 22.7782 40.8471 22.6994L41.7376 22.3815C42.2169 22.2124 42.6197 22.1619 42.9461 22.2301C43.2725 22.2983 43.5308 22.4905 43.721 22.8067C43.894 23.0943 43.9611 23.3977 43.9222 23.7168C43.8852 24.0348 43.7568 24.343 43.5368 24.6414C43.3176 24.9367 43.0175 25.199 42.6366 25.4283C42.0557 25.7778 41.5202 25.9354 41.0299 25.9009C40.5405 25.8634 40.1402 25.6529 39.829 25.2694L40.9882 24.4862C41.131 24.6416 41.2999 24.7241 41.4951 24.7338C41.6891 24.7415 41.8947 24.6801 42.1118 24.5494C42.3251 24.4211 42.4719 24.277 42.5521 24.1171C42.6331 23.9542 42.6351 23.8065 42.5579 23.6739C42.4895 23.5646 42.3885 23.5022 42.2546 23.4868C42.1197 23.4694 41.9455 23.499 41.7321 23.5755L40.8811 23.8814C40.4011 24.0535 39.9927 24.0969 39.656 24.0116C39.3212 23.9251 39.0553 23.718 38.8582 23.3904C38.6886 23.1085 38.6187 22.8198 38.6485 22.5243C38.6801 22.2277 38.8017 21.9405 39.0134 21.6627C39.2269 21.3837 39.5212 21.1314 39.8964 20.9056C40.4506 20.5721 40.9572 20.4268 41.4162 20.4696C41.8771 20.5114 42.2557 20.7181 42.5519 21.0898Z" fill="white"/>
<path d="M49.9517 21.6237L47.7716 15.1527L49.1398 14.6916L50.0392 17.3616L52.8165 16.4256L51.917 13.7557L53.282 13.2957L55.462 19.7668L54.0971 20.2268L53.1965 17.5537L50.4192 18.4896L51.3198 21.1627L49.9517 21.6237Z" fill="white"/>
<path d="M57.3096 19.5097C56.9905 19.5799 56.6939 19.5872 56.4199 19.5314C56.1454 19.4735 55.9113 19.3509 55.7176 19.1637C55.5256 18.9738 55.3933 18.7139 55.3207 18.3839C55.2596 18.1061 55.2592 17.8615 55.3197 17.6501C55.3801 17.4388 55.4856 17.2563 55.6361 17.1025C55.7866 16.9487 55.9673 16.8179 56.1779 16.7101C56.3908 16.6018 56.6184 16.5084 56.8606 16.4301C57.1448 16.3357 57.373 16.2558 57.5453 16.1906C57.7171 16.1232 57.8372 16.0535 57.9055 15.9815C57.9739 15.9096 57.9964 15.8204 57.973 15.7141L57.9687 15.6945C57.9233 15.4883 57.8231 15.3431 57.668 15.2589C57.515 15.1742 57.3203 15.1579 57.0837 15.21C56.834 15.2649 56.6476 15.364 56.5243 15.5072C56.4006 15.6483 56.333 15.8065 56.3216 15.982L55.0157 16.1603C55.0139 15.842 55.0842 15.5511 55.2265 15.2877C55.3683 15.022 55.5769 14.7963 55.8524 14.6104C56.1296 14.422 56.4679 14.2838 56.8673 14.1958C57.1452 14.1347 57.4182 14.1087 57.6866 14.1179C57.957 14.1266 58.2061 14.1776 58.4338 14.2709C58.6636 14.3637 58.8597 14.5049 59.022 14.6945C59.1839 14.8819 59.2975 15.1243 59.363 15.4217L60.1054 18.7952L58.7899 19.0848L58.6373 18.3912L58.5982 18.3998C58.5523 18.5738 58.4752 18.7353 58.3669 18.8843C58.2581 19.0312 58.1166 19.159 57.9426 19.2679C57.7681 19.3746 57.5571 19.4552 57.3096 19.5097ZM57.4962 18.4649C57.7002 18.42 57.8716 18.3401 58.0102 18.2254C58.1483 18.1085 58.2466 17.9708 58.305 17.8123C58.3635 17.6537 58.3733 17.4866 58.3346 17.3107L58.2178 16.78C58.1806 16.8177 58.1266 16.8569 58.0559 16.8975C57.9869 16.9355 57.9079 16.9745 57.8188 17.0146C57.7293 17.0525 57.6395 17.0893 57.5495 17.1251C57.459 17.1587 57.377 17.1892 57.3034 17.2168C57.1459 17.2765 57.012 17.3458 56.9019 17.4247C56.7918 17.5036 56.7129 17.5949 56.6652 17.6987C56.617 17.8004 56.6073 17.9163 56.636 18.0466C56.6775 18.2354 56.7777 18.3647 56.9364 18.4345C57.0968 18.5016 57.2834 18.5117 57.4962 18.4649Z" fill="white"/>
<path d="M65.3751 13.0423L64.1487 18.3272L62.5577 18.5002L60.2241 13.6026L61.7157 13.4403L63.1692 16.9681L63.2222 16.9623L63.8802 13.2049L65.3751 13.0423Z" fill="white"/>
<path d="M68.6034 18.1C68.0766 18.1 67.6232 17.9933 67.2431 17.7799C66.8652 17.5643 66.574 17.2598 66.3695 16.8664C66.165 16.4707 66.0628 16.0028 66.0628 15.4627C66.0628 14.9359 66.165 14.4735 66.3695 14.0757C66.574 13.6778 66.8619 13.3677 67.2331 13.1454C67.6065 12.9231 68.0444 12.812 68.5467 12.812C68.8846 12.812 69.1991 12.8665 69.4903 12.9754C69.7837 13.0821 70.0393 13.2432 70.2572 13.4588C70.4772 13.6744 70.6484 13.9456 70.7706 14.2724C70.8929 14.5969 70.954 14.977 70.954 15.4127V15.8028H66.6296V14.9225H69.617C69.617 14.718 69.5725 14.5369 69.4836 14.3791C69.3947 14.2213 69.2714 14.0979 69.1135 14.009C68.9579 13.9178 68.7768 13.8723 68.5701 13.8723C68.3545 13.8723 68.1633 13.9223 67.9966 14.0223C67.8321 14.1201 67.7032 14.2524 67.6098 14.4191C67.5165 14.5836 67.4687 14.767 67.4664 14.9692V15.8061C67.4664 16.0595 67.5131 16.2784 67.6065 16.4629C67.7021 16.6474 67.8365 16.7897 68.0099 16.8897C68.1833 16.9897 68.3889 17.0398 68.6267 17.0398C68.7846 17.0398 68.929 17.0175 69.0602 16.9731C69.1913 16.9286 69.3036 16.8619 69.3969 16.773C69.4903 16.6841 69.5614 16.5752 69.6103 16.4463L70.924 16.533C70.8573 16.8486 70.7206 17.1242 70.5139 17.3598C70.3094 17.5932 70.0449 17.7755 69.7204 17.9066C69.3981 18.0356 69.0257 18.1 68.6034 18.1Z" fill="white"/>
<path d="M78.9131 19.3319C78.594 19.2617 78.3218 19.1437 78.0965 18.978C77.8717 18.8102 77.7107 18.6006 77.6135 18.3493C77.519 18.0964 77.508 17.8049 77.5806 17.4749C77.6418 17.1971 77.7441 16.9749 77.8877 16.8085C78.0313 16.6421 78.2037 16.5208 78.4049 16.4444C78.606 16.3681 78.8248 16.3252 79.0613 16.3158C79.3 16.3069 79.5457 16.3178 79.7984 16.3484C80.096 16.382 80.3367 16.4054 80.5204 16.4185C80.7046 16.4295 80.8429 16.4167 80.9351 16.3801C81.0274 16.3435 81.0852 16.272 81.1086 16.1657L81.1129 16.1461C81.1583 15.9399 81.1283 15.766 81.0229 15.6244C80.9197 15.4834 80.7497 15.3868 80.5131 15.3347C80.2635 15.2797 80.0527 15.2914 79.8807 15.3696C79.7092 15.4456 79.5814 15.5609 79.4973 15.7153L78.2373 15.3287C78.3693 15.0391 78.5552 14.8046 78.795 14.6253C79.0352 14.4437 79.3194 14.3265 79.6474 14.2735C79.978 14.2189 80.3431 14.2355 80.7425 14.3234C81.0204 14.3846 81.2791 14.4757 81.5188 14.5967C81.7606 14.7183 81.9652 14.8691 82.1327 15.0494C82.3023 15.2301 82.421 15.4406 82.4887 15.6809C82.557 15.9189 82.5584 16.1867 82.4929 16.4841L81.7505 19.8576L80.435 19.5679L80.5876 18.8744L80.5485 18.8658C80.4338 19.0044 80.296 19.1186 80.1352 19.2083C79.9748 19.2959 79.7927 19.3526 79.5891 19.3783C79.3859 19.4019 79.1605 19.3864 78.9131 19.3319ZM79.521 18.462C79.7251 18.5069 79.9141 18.5064 80.0881 18.4605C80.2625 18.4125 80.4095 18.3287 80.5291 18.2094C80.6487 18.0901 80.7278 17.9425 80.7665 17.7666L80.8833 17.2359C80.8337 17.2545 80.7683 17.2674 80.6871 17.2746C80.6085 17.28 80.5204 17.2823 80.4227 17.2813C80.3255 17.2781 80.2286 17.2738 80.1319 17.2685C80.0357 17.2609 79.9484 17.2542 79.8701 17.2484C79.702 17.2364 79.5514 17.2431 79.4184 17.2684C79.2854 17.2938 79.1754 17.3435 79.0885 17.4177C79.0021 17.4897 78.9446 17.5909 78.9159 17.7211C78.8744 17.91 78.911 18.0694 79.0258 18.1994C79.1432 18.3276 79.3083 18.4152 79.521 18.462Z" fill="white"/>
<path d="M89.9817 23.0652C89.5057 22.8449 89.1428 22.5546 88.8932 22.1941C88.6465 21.8326 88.5149 21.4288 88.4984 20.9828C88.4839 20.5377 88.5853 20.0801 88.8028 19.61C89.023 19.1339 89.308 18.7588 89.6577 18.4846C90.0103 18.2094 90.4037 18.0498 90.838 18.0058C91.2732 17.9598 91.7258 18.0455 92.1958 18.263C92.6013 18.4506 92.9222 18.6886 93.1587 18.9768C93.3952 19.265 93.5406 19.5833 93.595 19.9318C93.6493 20.2802 93.6025 20.6382 93.4546 21.0057L92.2381 20.4428C92.3111 20.1949 92.3067 19.9663 92.2248 19.757C92.1458 19.5465 91.9883 19.3867 91.7522 19.2775C91.5525 19.1851 91.3528 19.1588 91.1532 19.1987C90.9564 19.2374 90.7691 19.3406 90.5912 19.5081C90.4133 19.6756 90.2567 19.9056 90.1214 20.1981C89.9842 20.4947 89.9079 20.7655 89.8925 21.0107C89.8791 21.2567 89.9218 21.4688 90.0207 21.6468C90.1196 21.8248 90.2689 21.96 90.4686 22.0524C90.6159 22.1206 90.762 22.1514 90.907 22.1451C91.054 22.1396 91.1925 22.0971 91.3223 22.0176C91.4551 21.937 91.5714 21.8206 91.6712 21.6684L92.8876 22.2313C92.7032 22.577 92.4617 22.8449 92.1632 23.0349C91.8676 23.2239 91.5335 23.324 91.1609 23.3353C90.7884 23.3466 90.3953 23.2566 89.9817 23.0652Z" fill="white"/>
<path d="M95.1886 22.3342L93.6623 24.8713L92.4453 24.1389L95.9653 18.2877L97.148 18.9994L95.8022 21.2365L95.8537 21.2674C96.1085 21.068 96.3906 20.9614 96.6997 20.9477C97.01 20.9321 97.3318 21.0245 97.6651 21.2251C97.9698 21.4085 98.1954 21.635 98.3418 21.9047C98.4913 22.1737 98.5544 22.4698 98.5312 22.7931C98.511 23.1156 98.3968 23.4476 98.1886 23.7893L96.5077 26.5835L95.2907 25.8512L96.841 23.2741C97.0056 23.0048 97.0637 22.7531 97.0152 22.5189C96.9685 22.286 96.8215 22.095 96.5739 21.946C96.4082 21.8463 96.2403 21.7932 96.0703 21.7869C95.9022 21.7818 95.7413 21.825 95.5876 21.9167C95.4369 22.0076 95.3039 22.1468 95.1886 22.3342Z" fill="white"/>
<path d="M98.5931 28.2433C98.333 28.0455 98.1355 27.8242 98.0006 27.5792C97.8671 27.3325 97.8089 27.0747 97.8262 26.8058C97.8467 26.5365 97.9591 26.2674 98.1635 25.9984C98.3357 25.7719 98.5219 25.6132 98.7221 25.5225C98.9222 25.4318 99.1296 25.394 99.3442 25.4092C99.5589 25.4244 99.7754 25.4774 99.994 25.5681C100.214 25.6603 100.433 25.7733 100.649 25.9072C100.905 26.0627 101.114 26.185 101.275 26.274C101.438 26.3614 101.568 26.4078 101.668 26.4133C101.767 26.4189 101.849 26.3783 101.915 26.2915L101.927 26.2756C102.055 26.1075 102.101 25.9371 102.065 25.7643C102.03 25.5929 101.916 25.4339 101.724 25.2873C101.52 25.1326 101.324 25.0546 101.135 25.0534C100.947 25.0504 100.783 25.1013 100.642 25.2062L99.6606 24.3262C99.902 24.1188 100.169 23.9841 100.462 23.9219C100.756 23.8581 101.063 23.8709 101.383 23.9606C101.706 24.0499 102.031 24.2182 102.356 24.4658C102.583 24.638 102.779 24.8293 102.946 25.0398C103.114 25.2517 103.237 25.4745 103.313 25.7084C103.391 25.9437 103.411 26.1846 103.371 26.4311C103.333 26.6758 103.222 26.9194 103.038 27.1618L100.947 29.9119L99.8752 29.0966L100.305 28.5312L100.273 28.507C100.111 28.5846 99.9378 28.6304 99.7541 28.6443C99.5718 28.6565 99.3828 28.6315 99.1871 28.5693C98.9928 28.5053 98.7948 28.3967 98.5931 28.2433ZM99.5101 27.7091C99.6764 27.8355 99.8482 27.9145 100.025 27.9458C100.204 27.9755 100.372 27.9612 100.531 27.9031C100.69 27.845 100.823 27.7443 100.932 27.601L101.261 27.1683C101.208 27.1644 101.144 27.1486 101.067 27.121C100.993 27.0929 100.912 27.058 100.824 27.016C100.737 26.9724 100.651 26.9278 100.566 26.8823C100.481 26.8351 100.405 26.7924 100.336 26.7541C100.189 26.6727 100.049 26.6155 99.9181 26.5827C99.7867 26.5498 99.6661 26.5488 99.5561 26.5796C99.4474 26.6087 99.3527 26.6764 99.272 26.7825C99.155 26.9365 99.1213 27.0966 99.1709 27.2627C99.2236 27.4284 99.3367 27.5772 99.5101 27.7091Z" fill="white"/>
<path d="M107.927 29.4306L107.193 30.2053L104.954 28.0841L105.688 27.3095L107.927 29.4306ZM107.04 26.9002L108.071 27.877L104.788 31.3436C104.697 31.4388 104.642 31.5268 104.62 31.6076C104.6 31.6868 104.606 31.7613 104.638 31.8312C104.671 31.9026 104.723 31.9712 104.792 32.0369C104.841 32.0828 104.893 32.1246 104.949 32.1624C105.006 32.1986 105.05 32.2265 105.081 32.2461L104.516 33.1671C104.449 33.1344 104.359 33.0841 104.246 33.0164C104.131 32.9504 104.004 32.8563 103.865 32.7343C103.608 32.5085 103.421 32.2691 103.306 32.0159C103.192 31.7642 103.159 31.5096 103.207 31.252C103.255 30.9944 103.396 30.7445 103.628 30.5023L107.04 26.9002Z" fill="white"/>
<path d="M111.378 39.7745C111.227 39.5519 111.144 39.3118 111.128 39.0542C111.113 38.7953 111.161 38.5484 111.27 38.3132C111.38 38.0799 111.547 37.8878 111.769 37.7368C111.994 37.5846 112.234 37.501 112.489 37.4861C112.748 37.4717 112.994 37.5197 113.228 37.6301C113.463 37.7393 113.656 37.9051 113.807 38.1278C113.959 38.3522 114.041 38.593 114.055 38.85C114.071 39.1076 114.024 39.353 113.913 39.5863C113.806 39.8202 113.64 40.0133 113.416 40.1655C113.193 40.3164 112.952 40.3991 112.694 40.4134C112.436 40.4296 112.19 40.3832 111.955 40.274C111.723 40.1655 111.53 39.999 111.378 39.7745Z" fill="white"/>
<path d="M114.619 48.2032L120.962 45.6754L121.497 47.0166L116.259 49.1038L117.343 51.8233L116.237 52.2639L114.619 48.2032Z" fill="white"/>
<path d="M116.95 55.1486C116.809 54.641 116.791 54.1755 116.895 53.7522C117.001 53.3304 117.217 52.9683 117.541 52.666C117.868 52.3631 118.291 52.1394 118.812 51.9949C119.319 51.8539 119.792 51.8287 120.23 51.9193C120.668 52.0099 121.044 52.2043 121.358 52.5025C121.672 52.8029 121.896 53.1951 122.03 53.6791C122.121 54.0046 122.152 54.3223 122.125 54.632C122.101 54.9433 122.014 55.2327 121.864 55.5003C121.716 55.77 121.5 56.0075 121.218 56.2127C120.938 56.4173 120.588 56.5779 120.168 56.6945L119.792 56.7989L118.636 52.632L119.484 52.3965L120.283 55.2751C120.48 55.2204 120.643 55.1291 120.771 55.0012C120.899 54.8733 120.985 54.7214 121.028 54.5455C121.075 54.3712 121.07 54.1845 121.015 53.9853C120.957 53.7775 120.858 53.6067 120.717 53.4728C120.579 53.3405 120.417 53.2517 120.231 53.2063C120.048 53.1604 119.858 53.1634 119.663 53.2154L118.856 53.4393C118.612 53.5071 118.414 53.6107 118.261 53.75C118.109 53.8914 118.008 54.0591 117.958 54.2529C117.908 54.4467 117.914 54.6582 117.978 54.8874C118.02 55.0395 118.08 55.1727 118.158 55.2872C118.236 55.4017 118.33 55.492 118.441 55.5582C118.552 55.6243 118.676 55.6637 118.813 55.6764L119.081 56.9653C118.759 56.9855 118.457 56.9276 118.174 56.7914C117.895 56.6568 117.648 56.4507 117.435 56.1731C117.225 55.8971 117.063 55.5556 116.95 55.1486Z" fill="white"/>
<path d="M123.529 61.2515L122.476 61.4241L121.978 58.3806L123.03 58.208L123.529 61.2515ZM124.354 58.7004L124.584 60.1021L119.873 60.8746C119.743 60.8958 119.646 60.9321 119.58 60.9835C119.516 61.0345 119.476 61.0974 119.458 61.1723C119.442 61.2493 119.441 61.335 119.457 61.4293C119.468 61.4951 119.484 61.56 119.506 61.6241C119.529 61.6877 119.548 61.7365 119.56 61.7705L118.553 62.162C118.52 62.0954 118.478 62.0008 118.429 61.8783C118.377 61.7561 118.333 61.6045 118.297 61.4235C118.228 61.0879 118.225 60.7844 118.286 60.513C118.348 60.2439 118.476 60.0213 118.67 59.8453C118.864 59.6693 119.127 59.5553 119.459 59.5032L124.354 58.7004Z" fill="white"/>
<path d="M125.637 66.0924L124.918 66.1314C124.714 66.1425 124.503 66.1138 124.286 66.0455C124.071 65.9793 123.865 65.8858 123.67 65.765C123.476 65.6442 123.31 65.5096 123.17 65.3614L123.506 64.7154C123.687 64.8169 123.887 64.904 124.104 64.9768C124.322 65.0518 124.572 65.0817 124.854 65.0664L125.58 65.027L125.637 66.0924Z" fill="white"/>
<path d="M122.318 73.6129L122.309 72.3101C122.421 72.2939 122.523 72.2516 122.616 72.1832C122.711 72.1149 122.788 72.0222 122.848 71.9053C122.91 71.7906 122.945 71.6512 122.954 71.487C122.966 71.2672 122.93 71.0794 122.845 70.9234C122.762 70.7675 122.644 70.6854 122.491 70.6771C122.369 70.6705 122.263 70.7137 122.173 70.8068C122.084 70.8999 122.007 71.0638 121.943 71.2985L121.706 72.214C121.577 72.7056 121.393 73.0674 121.153 73.2992C120.914 73.5311 120.61 73.6371 120.241 73.6171C119.906 73.5989 119.617 73.4842 119.375 73.2729C119.132 73.0639 118.949 72.7846 118.826 72.4351C118.705 72.0879 118.656 71.6924 118.68 71.2485C118.717 70.5715 118.887 70.0398 119.19 69.6534C119.496 69.2693 119.895 69.0561 120.387 69.0137L120.385 70.4127C120.176 70.4437 120.013 70.5372 119.895 70.6933C119.78 70.8496 119.716 71.0542 119.702 71.3072C119.688 71.5558 119.725 71.7582 119.812 71.9143C119.902 72.0727 120.023 72.1572 120.176 72.1677C120.305 72.1725 120.413 72.1238 120.501 72.0218C120.591 71.9198 120.665 71.759 120.721 71.5395L120.945 70.6635C121.072 70.1695 121.266 69.8071 121.525 69.5763C121.785 69.3477 122.105 69.2438 122.487 69.2645C122.816 69.2823 123.094 69.3865 123.322 69.5769C123.549 69.7696 123.719 70.0314 123.83 70.3624C123.941 70.6957 123.985 71.0809 123.961 71.5182C123.926 72.1641 123.762 72.6649 123.469 73.0208C123.176 73.3789 122.792 73.5762 122.318 73.6129Z" fill="white"/>
<path d="M117.724 79.4387L124.303 81.2657L123.917 82.6568L121.202 81.903L120.418 84.727L123.133 85.4808L122.748 86.8687L116.168 85.0416L116.554 83.6537L119.271 84.4085L120.055 81.5845L117.337 80.8298L117.724 79.4387Z" fill="white"/>
<path d="M115.344 86.716C115.465 86.4125 115.625 86.163 115.825 85.9675C116.027 85.7728 116.26 85.6478 116.524 85.5926C116.789 85.5402 117.078 85.5766 117.392 85.7016C117.656 85.807 117.859 85.944 118 86.1126C118.141 86.2812 118.233 86.471 118.275 86.6819C118.318 86.8927 118.325 87.1156 118.296 87.3505C118.266 87.5875 118.216 87.8282 118.145 88.0727C118.064 88.3609 118.002 88.5946 117.959 88.7738C117.918 88.9538 117.909 89.0923 117.93 89.1893C117.951 89.2863 118.012 89.3549 118.113 89.3953L118.132 89.4027C118.328 89.4808 118.504 89.4794 118.661 89.3983C118.817 89.3192 118.94 89.1672 119.03 88.9421C119.124 88.7046 119.147 88.4947 119.097 88.3123C119.05 88.1307 118.957 87.986 118.818 87.878L119.403 86.6971C119.668 86.8743 119.869 87.0957 120.007 87.3613C120.148 87.6278 120.217 87.9271 120.217 88.2594C120.217 88.5946 120.142 88.9522 119.99 89.3321C119.885 89.5964 119.753 89.8371 119.595 90.054C119.436 90.273 119.254 90.4505 119.049 90.5866C118.843 90.7247 118.616 90.8077 118.368 90.8357C118.123 90.8645 117.858 90.8226 117.575 90.7098L114.366 89.4311L114.865 88.1798L115.525 88.4427L115.539 88.4055C115.421 88.2698 115.331 88.1154 115.268 87.9421C115.208 87.7696 115.181 87.5808 115.189 87.3757C115.198 87.1713 115.25 86.9514 115.344 86.716ZM116.104 87.4568C116.027 87.6509 115.997 87.8375 116.014 88.0167C116.033 88.1966 116.092 88.3552 116.19 88.4926C116.289 88.6299 116.422 88.7319 116.589 88.7985L117.094 88.9997C117.083 88.9477 117.081 88.8811 117.087 88.7997C117.094 88.7213 117.107 88.634 117.123 88.5378C117.142 88.4424 117.162 88.3474 117.183 88.2529C117.206 88.1592 117.227 88.0741 117.245 87.9977C117.284 87.8338 117.302 87.6841 117.298 87.5487C117.295 87.4134 117.264 87.2968 117.204 87.199C117.147 87.1021 117.057 87.029 116.933 86.9796C116.753 86.908 116.59 86.9183 116.443 87.0106C116.298 87.1057 116.185 87.2544 116.104 87.4568Z" fill="white"/>
<path d="M116.171 97.0216L112.485 93.0405L113.235 91.6265L118.598 92.4437L117.895 93.7693L114.16 92.9925L114.135 93.0396L116.875 95.693L116.171 97.0216Z" fill="white"/>
<path d="M110.046 96.7777C110.341 96.3416 110.684 96.0262 111.074 95.8313C111.464 95.6395 111.88 95.5694 112.32 95.621C112.762 95.6738 113.207 95.8517 113.654 96.1549C114.09 96.4506 114.415 96.7947 114.63 97.1873C114.845 97.5798 114.94 97.9921 114.915 98.4241C114.89 98.858 114.736 99.2828 114.454 99.6986C114.265 99.9783 114.043 100.208 113.789 100.388C113.537 100.571 113.26 100.692 112.959 100.751C112.657 100.813 112.337 100.802 111.998 100.72C111.66 100.639 111.312 100.476 110.951 100.232L110.628 100.013L113.055 96.4332L113.783 96.9272L112.107 99.4C112.276 99.5148 112.451 99.5796 112.631 99.5946C112.812 99.6096 112.983 99.5767 113.145 99.496C113.308 99.4184 113.448 99.294 113.564 99.1229C113.685 98.9444 113.75 98.7581 113.761 98.564C113.773 98.3729 113.735 98.192 113.65 98.0212C113.566 97.8516 113.441 97.7091 113.275 97.5937L112.582 97.124C112.373 96.9818 112.165 96.8976 111.96 96.8713C111.754 96.8469 111.561 96.8783 111.38 96.9657C111.2 97.0531 111.044 97.1952 110.91 97.3921C110.822 97.5227 110.759 97.6548 110.722 97.7883C110.685 97.9218 110.678 98.0521 110.699 98.1793C110.72 98.3064 110.77 98.4265 110.849 98.5393L110.041 99.578C109.817 99.3457 109.665 99.0778 109.586 98.7745C109.508 98.4742 109.505 98.153 109.579 97.8107C109.653 97.4716 109.809 97.1272 110.046 96.7777Z" fill="white"/>
<path d="M103.369 104.699C103.607 104.474 103.857 104.315 104.12 104.222C104.385 104.13 104.649 104.114 104.912 104.175C105.174 104.238 105.421 104.393 105.654 104.638C105.849 104.845 105.976 105.054 106.033 105.266C106.09 105.479 106.094 105.689 106.044 105.899C105.994 106.108 105.907 106.313 105.782 106.514C105.656 106.717 105.509 106.914 105.342 107.106C105.147 107.334 104.992 107.52 104.878 107.665C104.766 107.811 104.699 107.932 104.678 108.029C104.656 108.126 104.683 108.214 104.758 108.293L104.771 108.308C104.917 108.461 105.077 108.534 105.254 108.526C105.428 108.52 105.604 108.433 105.78 108.267C105.965 108.091 106.074 107.91 106.106 107.724C106.139 107.539 106.115 107.369 106.035 107.212L107.062 106.386C107.227 106.658 107.317 106.944 107.331 107.243C107.346 107.543 107.284 107.844 107.144 108.146C107.003 108.45 106.785 108.743 106.488 109.024C106.281 109.22 106.061 109.383 105.826 109.513C105.59 109.645 105.35 109.73 105.107 109.768C104.862 109.807 104.621 109.787 104.384 109.708C104.149 109.631 103.927 109.482 103.717 109.261L101.342 106.753L102.32 105.826L102.808 106.342L102.837 106.314C102.787 106.142 102.77 105.963 102.786 105.78C102.803 105.598 102.859 105.415 102.952 105.232C103.046 105.051 103.185 104.873 103.369 104.699ZM103.748 105.69C103.596 105.834 103.491 105.991 103.431 106.161C103.373 106.332 103.36 106.501 103.391 106.667C103.423 106.833 103.501 106.981 103.625 107.112L103.998 107.506C104.011 107.455 104.037 107.393 104.077 107.322C104.116 107.254 104.164 107.18 104.219 107.099C104.276 107.021 104.334 106.943 104.393 106.866C104.453 106.791 104.508 106.722 104.557 106.66C104.661 106.528 104.74 106.4 104.793 106.275C104.847 106.151 104.868 106.032 104.855 105.918C104.844 105.807 104.793 105.702 104.701 105.605C104.568 105.465 104.415 105.406 104.243 105.428C104.071 105.453 103.906 105.541 103.748 105.69Z" fill="white"/>
<path d="M94.0686 111.768C94.5181 111.497 94.962 111.36 95.4003 111.355C95.8379 111.354 96.2459 111.472 96.6244 111.708C97.0009 111.946 97.3226 112.287 97.5896 112.731C97.86 113.18 98.0105 113.627 98.0412 114.07C98.0711 114.516 97.9824 114.932 97.7751 115.316C97.569 115.702 97.244 116.028 96.8003 116.295C96.4174 116.526 96.0404 116.658 95.6692 116.692C95.298 116.726 94.9529 116.668 94.6341 116.517C94.3152 116.367 94.0452 116.127 93.8241 115.798L94.9726 115.107C95.1367 115.307 95.3284 115.431 95.5477 115.481C95.7661 115.534 95.9868 115.493 96.2096 115.359C96.3982 115.246 96.532 115.095 96.611 114.907C96.6893 114.723 96.7091 114.51 96.6703 114.268C96.6315 114.027 96.5291 113.768 96.3629 113.492C96.1945 113.212 96.0131 112.997 95.8189 112.847C95.6228 112.698 95.4234 112.614 95.2206 112.596C95.0178 112.578 94.8221 112.626 94.6335 112.739C94.4945 112.823 94.3869 112.926 94.3109 113.05C94.2329 113.175 94.1903 113.313 94.1833 113.465C94.1755 113.62 94.2065 113.782 94.2765 113.95L93.1281 114.641C92.9454 114.295 92.8592 113.944 92.8695 113.59C92.879 113.24 92.9836 112.907 93.1833 112.592C93.3831 112.277 93.6782 112.003 94.0686 111.768Z" fill="white"/>
<path d="M91.7516 116.489L90.5086 113.801L91.7976 113.205L94.6644 119.402L93.4117 119.982L92.3156 117.613L92.2612 117.638C92.2832 117.961 92.2131 118.254 92.051 118.518C91.8897 118.783 91.6326 118.998 91.2796 119.161C90.9568 119.31 90.6427 119.37 90.3374 119.34C90.0309 119.313 89.7504 119.199 89.496 118.998C89.2404 118.8 89.0297 118.52 88.8637 118.155L87.4947 115.196L88.7838 114.599L90.0464 117.329C90.1769 117.616 90.3526 117.806 90.5736 117.897C90.7926 117.989 91.0332 117.975 91.2954 117.853C91.4709 117.772 91.609 117.663 91.7096 117.526C91.8083 117.389 91.8628 117.232 91.8732 117.053C91.8825 116.877 91.842 116.689 91.7516 116.489Z" fill="white"/>
<path d="M84.9513 115.991C85.2609 115.887 85.5549 115.848 85.8334 115.873C86.1125 115.901 86.3585 115.998 86.5713 116.163C86.7827 116.331 86.9423 116.575 87.0502 116.895C87.141 117.165 87.1678 117.408 87.1305 117.625C87.0933 117.841 87.0081 118.034 86.8751 118.203C86.7421 118.373 86.5767 118.522 86.3789 118.652C86.179 118.783 85.9629 118.9 85.7306 119.004C85.4583 119.129 85.24 119.233 85.0758 119.316C84.9123 119.402 84.8004 119.484 84.7402 119.563C84.6801 119.642 84.6673 119.733 84.7021 119.836L84.7085 119.855C84.7759 120.056 84.8913 120.189 85.0546 120.256C85.2157 120.324 85.4111 120.319 85.6407 120.241C85.883 120.16 86.0576 120.041 86.1646 119.885C86.2724 119.732 86.3225 119.567 86.3149 119.391L87.5938 119.073C87.63 119.389 87.5916 119.686 87.4786 119.963C87.3663 120.243 87.1833 120.49 86.9295 120.704C86.6744 120.922 86.353 121.096 85.9654 121.226C85.6958 121.317 85.4271 121.372 85.1594 121.392C84.8896 121.413 84.6364 121.389 84.4001 121.321C84.1616 121.254 83.9514 121.134 83.7695 120.963C83.5883 120.795 83.4491 120.566 83.3519 120.277L82.2491 117.004L83.5256 116.574L83.7523 117.247L83.7902 117.234C83.8171 117.056 83.8763 116.887 83.9678 116.727C84.0601 116.57 84.1869 116.427 84.3481 116.3C84.5101 116.175 84.7111 116.072 84.9513 115.991ZM84.8787 117.05C84.6807 117.117 84.519 117.215 84.3936 117.344C84.2689 117.475 84.1861 117.622 84.1452 117.786C84.1042 117.95 84.1125 118.118 84.17 118.288L84.3435 118.803C84.3764 118.762 84.4258 118.717 84.4917 118.669C84.5562 118.624 84.6306 118.576 84.7148 118.527C84.7997 118.479 84.8849 118.433 84.9705 118.388C85.0569 118.345 85.1351 118.305 85.2053 118.27C85.3555 118.194 85.481 118.11 85.5819 118.02C85.6829 117.93 85.7514 117.83 85.7876 117.722C85.8245 117.616 85.8217 117.499 85.7791 117.373C85.7174 117.19 85.6039 117.072 85.4385 117.02C85.2718 116.97 85.0852 116.981 84.8787 117.05Z" fill="white"/>
<path d="M78.7306 123.051L78.5012 122.009L81.5132 121.346L81.7426 122.388L78.7306 123.051ZM81.3225 123.737L79.9353 124.043L78.9091 119.38C78.8809 119.252 78.8394 119.156 78.7846 119.093C78.7302 119.032 78.6652 118.995 78.5895 118.982C78.5116 118.97 78.426 118.974 78.3327 118.994C78.2676 119.009 78.2036 119.028 78.1409 119.054C78.0787 119.081 78.0309 119.102 77.9976 119.116L77.5522 118.132C77.6169 118.095 77.7091 118.048 77.8288 117.992C77.948 117.934 78.097 117.882 78.2758 117.836C78.6072 117.749 78.91 117.729 79.1843 117.776C79.4564 117.823 79.6856 117.939 79.8718 118.123C80.058 118.307 80.1861 118.564 80.2561 118.892L81.3225 123.737Z" fill="white"/>
</svg>
